<?xml version="1.0" encoding="UTF-8" standalone="no"?>
<!-- Created with Inkscape (http://www.inkscape.org/) -->

<svg
   xmlns:dc="http://purl.org/dc/elements/1.1/"
   xmlns:cc="http://creativecommons.org/ns#"
   xmlns:rdf="http://www.w3.org/1999/02/22-rdf-syntax-ns#"
   xmlns:svg="http://www.w3.org/2000/svg"
   xmlns="http://www.w3.org/2000/svg"
   xmlns:sodipodi="http://sodipodi.sourceforge.net/DTD/sodipodi-0.dtd"
   xmlns:inkscape="http://www.inkscape.org/namespaces/inkscape"
   width="500"
   height="500"
   id="svg9589"
   version="1.1"
   inkscape:version="0.48.4 r9939"
   sodipodi:docname="01.svg">
  <defs
     id="defs9591" />
  <sodipodi:namedview
     id="base"
     pagecolor="#ffffff"
     bordercolor="#666666"
     borderopacity="1.0"
     inkscape:pageopacity="0.0"
     inkscape:pageshadow="2"
     inkscape:zoom="1"
     inkscape:cx="375"
     inkscape:cy="231.83157"
     inkscape:document-units="px"
     inkscape:current-layer="layer1"
     showgrid="false"
     inkscape:window-width="1920"
     inkscape:window-height="1018"
     inkscape:window-x="1358"
     inkscape:window-y="-8"
     inkscape:window-maximized="1" />
  <metadata
     id="metadata9594">
    <rdf:RDF>
      <cc:Work
         rdf:about="">
        <dc:format>image/svg+xml</dc:format>
        <dc:type
           rdf:resource="http://purl.org/dc/dcmitype/StillImage" />
        <dc:title></dc:title>
      </cc:Work>
    </rdf:RDF>
  </metadata>
  <g
     inkscape:label="レイヤー 1"
     inkscape:groupmode="layer"
     id="layer1"
     transform="translate(0,-552.36218)">
    <path
       d="m 121.62653,802.89524 c 0,70.91168 57.24695,128.38429 127.87348,128.38429 70.6201,0 127.87351,-57.47261 127.87351,-128.38429 0,-70.90497 -57.25341,-128.37755 -127.87351,-128.37755 -70.62653,0 -127.87348,57.47258 -127.87348,128.37755"
       style="fill:#ffffff;fill-opacity:1;fill-rule:nonzero;stroke:none"
       id="path3149"
       inkscape:connector-curvature="0" />
    <path
       d="m 276.42078,606.9438 c 0,-28.61467 -24.20174,-53.20235 -26.82653,-54.01318 0,-0.008 -0.054,-0.0324 -0.0592,-0.0324 0,0 -0.054,0.004 -0.054,0.004 0,0 -0.054,-0.004 -0.054,-0.004 0,0 -0.054,0.0224 -0.0592,0.0324 -2.62479,0.81083 -26.82651,25.39851 -26.82651,54.01318 0,19.69582 15.31141,26.98632 26.85341,27.02686 0,0 0,0.003 0.054,0.003 l 0.054,0 0.054,0 c 0,0 0,-0.003 0.054,-0.003 11.54252,-0.0432 26.85342,-7.33104 26.85342,-27.02686"
       style="fill:#ffffff;fill-opacity:1;fill-rule:nonzero;stroke:none"
       id="path3153"
       inkscape:connector-curvature="0" />
    <path
       d="m 222.57931,998.8527 c 0,28.6147 24.20174,53.2023 26.82651,54.0131 0,0.01 0.054,0.032 0.0592,0.032 0,0 0,0 0.054,0 0,0 0,0 0.054,0 0,0 0.054,-0.023 0.0592,-0.032 2.62476,-0.8108 26.82651,-25.3984 26.82651,-54.0131 0,-19.69583 -15.3109,-26.98631 -26.85343,-27.02689 0,0 0,-0.003 -0.054,-0.003 l -0.054,0 -0.054,0 c 0,0 0,0.003 -0.054,0.003 -11.54198,0.0434 -26.85344,7.33106 -26.85344,27.02689"
       style="fill:#ffffff;fill-opacity:1;fill-rule:nonzero;stroke:none"
       id="path3157"
       inkscape:connector-curvature="0" />
    <path
       d="m 444.68507,829.92881 c 28.50203,0 52.99344,-24.30385 53.80107,-26.93224 0,-0.0225 0.054,-0.0377 0.054,-0.0675 0,0 0,-0.0225 0,-0.0271 0,-0.008 0,-0.0271 0,-0.0434 0,-0.0225 0,-0.0377 -0.054,-0.0605 -0.80763,-2.62835 -25.29904,-26.92549 -53.80107,-26.92549 -19.6188,0 -26.8804,15.36477 -26.92076,26.95932 0,0.003 0,0.008 0,0.0271 l 0,0.0434 0,0.0271 c 0,0.0225 0,0.027 0,0.0377 0.054,11.58775 7.30196,26.95929 26.92076,26.95929"
       style="fill:#ffffff;fill-opacity:1;fill-rule:nonzero;stroke:none"
       id="path3161"
       inkscape:connector-curvature="0" />
    <path
       d="m 54.315041,775.87516 c -28.502605,0 -52.9934932,24.2971 -53.80110881,26.9255 0,0.0225 -0.0539749,0.0377 -0.0539749,0.0605 0,0.008 0,0.0271 0,0.0432 0,0.003 0,0.0271 0,0.0271 0,0.0271 0,0.0487 0.0539749,0.0675 0.80761561,2.62835 25.29850381,26.93226 53.80110881,26.93226 19.618187,0 26.880343,-15.37154 26.92072,-26.95928 0,-0.008 0,-0.0271 0,-0.0378 l 0,-0.0271 0,-0.0434 c 0,-0.008 0,-0.0225 0,-0.0324 -0.05397,-11.58776 -7.302533,-26.95254 -26.92072,-26.95254"
       style="fill:#ffffff;fill-opacity:1;fill-rule:nonzero;stroke:none"
       id="path3165"
       inkscape:connector-curvature="0" />
    <path
       d="m 406.55184,683.44531 c 20.1566,-20.2296 20.35852,-54.79695 19.07333,-57.23612 0,-0.0225 0,-0.054 0,-0.0605 0,-0.003 0,-0.008 0,-0.0225 0,-0.003 0,-0.027 0,-0.027 0,-0.0225 -0.054,-0.0225 -0.07,-0.0225 -2.42286,-1.29728 -36.85448,-1.0878 -57.01164,19.14855 -13.87064,13.92558 -8.18391,29.94573 -0.054,38.16866 0,0.003 0,0.0225 0,0.0324 0,0.003 0,0.008 0.054,0.0225 0,0.008 0,0.0225 0,0.027 0,0.003 0,0.003 0.054,0.0225 8.18389,8.1621 24.14791,13.87828 38.01907,-0.0542"
       style="fill:#ffffff;fill-opacity:1;fill-rule:nonzero;stroke:none"
       id="path3169"
       inkscape:connector-curvature="0" />
    <path
       d="m 92.448257,922.34507 c -20.157198,20.23638 -20.359092,54.80371 -19.073356,57.24286 0,0.0225 0,0.0488 0,0.0605 0,0.003 0,0.0192 0.05398,0.0225 0,0.003 0,0.027 0,0.027 0,0.0225 0.05397,0.0225 0.06998,0.0225 2.422844,1.2973 36.854469,1.08783 57.011099,-19.14852 13.87116,-13.92557 8.18391,-29.94577 0.054,-38.16864 l 0,-0.0324 c 0,-0.003 0,-0.008 -0.054,-0.0225 0,-0.008 0,-0.0225 0,-0.0271 0,-0.008 0,-0.008 -0.054,-0.0225 -8.18389,-8.16208 -24.1479,-13.87827 -38.018541,0.0489"
       style="fill:#ffffff;fill-opacity:1;fill-rule:nonzero;stroke:none"
       id="path3173"
       inkscape:connector-curvature="0" />
    <path
       d="m 368.47784,960.57591 c 20.15662,20.22958 54.58826,20.43231 57.01809,19.14178 0,0 0.054,0 0.07,-0.0225 l 0,-0.0271 c 0,-0.003 0,-0.008 0.054,-0.0225 0,-0.008 0,-0.0488 0,-0.0675 1.27876,-2.43241 1.07684,-36.99304 -19.08035,-57.22936 -13.8706,-13.93233 -29.82817,-8.21618 -38.0255,-0.0487 0,0 0,0 0,0.008 0,0.003 0,0.0225 0,0.027 0,0.008 0,0.008 0,0.0225 0,0.008 0,0.0225 -0.054,0.0324 -8.13009,8.21616 -13.82381,24.24311 0.054,38.17545"
       style="fill:#ffffff;fill-opacity:1;fill-rule:nonzero;stroke:none"
       id="path3177"
       inkscape:connector-curvature="0" />
    <path
       d="m 130.5158,645.22733 c -20.15665,-20.22957 -54.581806,-20.43905 -57.011141,-19.14854 0,0 -0.05397,0 -0.05924,0.008 0,0.008 0,0.027 0,0.0324 0,0.003 0,0.0225 0,0.0225 0,0.008 0,0.0489 0,0.0676 -1.278718,2.43243 -1.076814,36.99976 19.073346,57.2361 13.871155,13.93236 29.835165,8.20939 38.025535,0.0489 0,-0.008 0,-0.008 0.054,-0.027 0,0 0,-0.008 0,-0.008 0,-0.008 0,-0.0225 0,-0.0324 0,-0.003 0,-0.0225 0,-0.027 8.13004,-8.21616 13.82377,-24.23634 -0.054,-38.16869"
       style="fill:#ffffff;fill-opacity:1;fill-rule:nonzero;stroke:none"
       id="path3181"
       inkscape:connector-curvature="0" />
  </g>
</svg>
