<?xml version="1.0" encoding="UTF-8" standalone="no"?>
<!-- Created with Inkscape (http://www.inkscape.org/) -->

<svg
   xmlns:dc="http://purl.org/dc/elements/1.1/"
   xmlns:cc="http://creativecommons.org/ns#"
   xmlns:rdf="http://www.w3.org/1999/02/22-rdf-syntax-ns#"
   xmlns:svg="http://www.w3.org/2000/svg"
   xmlns="http://www.w3.org/2000/svg"
   xmlns:sodipodi="http://sodipodi.sourceforge.net/DTD/sodipodi-0.dtd"
   xmlns:inkscape="http://www.inkscape.org/namespaces/inkscape"
   width="71.053864"
   height="100.00018"
   id="svg3952"
   version="1.1"
   inkscape:version="0.48.4 r9939"
   sodipodi:docname="prec.svg">
  <defs
     id="defs3954" />
  <sodipodi:namedview
     id="base"
     pagecolor="#ffffff"
     bordercolor="#666666"
     borderopacity="1.0"
     inkscape:pageopacity="0.0"
     inkscape:pageshadow="2"
     inkscape:zoom="0.35"
     inkscape:cx="-248.12504"
     inkscape:cy="-64.822153"
     inkscape:document-units="px"
     inkscape:current-layer="layer1"
     showgrid="false"
     fit-margin-top="0"
     fit-margin-left="0"
     fit-margin-right="0"
     fit-margin-bottom="0"
     inkscape:window-width="769"
     inkscape:window-height="433"
     inkscape:window-x="1616"
     inkscape:window-y="250"
     inkscape:window-maximized="0" />
  <metadata
     id="metadata3957">
    <rdf:RDF>
      <cc:Work
         rdf:about="">
        <dc:format>image/svg+xml</dc:format>
        <dc:type
           rdf:resource="http://purl.org/dc/dcmitype/StillImage" />
        <dc:title></dc:title>
      </cc:Work>
    </rdf:RDF>
  </metadata>
  <g
     inkscape:label="レイヤー 1"
     inkscape:groupmode="layer"
     id="layer1"
     transform="translate(-623.12504,-347.53985)">
    <path
       inkscape:connector-curvature="0"
       d="m 694.17863,414.20924 c 0,-35.30576 -31.94255,-65.62987 -35.40049,-66.62199 -0.0263,-0.021 -0.0551,-0.0474 -0.0815,-0.0474 -0.0105,0 -0.0316,0.0105 -0.0448,0.0105 -0.0126,0 -0.0343,-0.0105 -0.0448,-0.0105 -0.0263,0 -0.0553,0.0263 -0.0815,0.0474 -3.45795,0.99212 -35.4005,31.31623 -35.4005,66.62199 0,24.28718 20.20555,33.27679 35.43735,33.32679 0.0126,0 0.029,0.004 0.0448,0.004 l 0.0448,0 0.0448,0 c 0.0189,0 0.0316,-0.004 0.0474,-0.004 15.22917,-0.0501 35.43471,-9.03961 35.43471,-33.32679"
       id="path3145"
       style="fill:#ffffff;fill-opacity:1;fill-rule:nonzero;stroke:none" />
  </g>
</svg>
