<?xml version="1.0" encoding="UTF-8" standalone="no"?>
<!-- Created with Inkscape (http://www.inkscape.org/) -->

<svg
   xmlns:dc="http://purl.org/dc/elements/1.1/"
   xmlns:cc="http://creativecommons.org/ns#"
   xmlns:rdf="http://www.w3.org/1999/02/22-rdf-syntax-ns#"
   xmlns:svg="http://www.w3.org/2000/svg"
   xmlns="http://www.w3.org/2000/svg"
   version="1.1"
   width="500"
   height="500"
   id="svg4503">
  <defs
     id="defs4505" />
  <metadata
     id="metadata4508">
    <rdf:RDF>
      <cc:Work
         rdf:about="">
        <dc:format>image/svg+xml</dc:format>
        <dc:type
           rdf:resource="http://purl.org/dc/dcmitype/StillImage" />
        <dc:title></dc:title>
      </cc:Work>
    </rdf:RDF>
  </metadata>
  <g
     transform="translate(-91.628542,-212.24884)"
     id="layer1">
    <path
       d="m 324.85923,614.91543 11.29618,7.5737 c 17.68985,11.85403 38.33516,18.12433 59.71532,18.12433 26.51332,0 51.97534,-9.75142 71.70881,-27.46809 l 7.35915,-6.60821 9.81041,1.31413 c 2.82137,0.37547 5.10099,0.55248 7.16605,0.55248 29.61898,0 53.71859,-24.09961 53.71859,-53.71858 0,-23.55786 -15.07769,-44.13881 -37.52524,-51.22441 l -9.42958,-2.98228 -3.85659,-9.10774 c -16.86918,-39.82631 -55.70318,-65.55653 -98.9516,-65.55653 -33.15908,0 -63.95809,15.00259 -84.50149,41.15117 l -8.37291,10.66326 -13.22181,-2.993 c -6.02891,-1.36777 -12.01493,-2.0597 -17.80249,-2.0597 -44.33726,0 -80.40353,36.06627 -80.40353,80.4089 0,44.33728 36.06627,80.40891 80.40353,80.40891 14.43403,0 28.68567,-3.97459 41.2209,-11.48392 l 11.6663,-6.99442 z m 71.0115,68.57634 c -25.51565,0 -50.30183,-6.38294 -72.41146,-18.57488 -16.15044,7.46107 -33.71692,11.35519 -51.48724,11.35519 -67.98095,0 -123.28721,-55.30626 -123.28721,-123.28722 0,-67.98632 55.30626,-123.28723 123.28721,-123.28723 4.68261,0 9.41887,0.28407 14.17657,0.84749 28.37992,-30.40745 67.6913,-47.61455 109.72213,-47.61455 57.32306,0 109.11603,32.31696 134.47077,83.1069 35.17052,15.15813 58.1759,49.64208 58.1759,88.64772 0,53.26802 -43.33423,96.59689 -96.60225,96.59689 -0.99766,0 -2.00606,-0.0215 -3.01982,-0.0536 -26.45433,20.87595 -59.1253,32.26332 -93.0246,32.26332"
       id="path3185"
       style="fill:#ffffff;fill-opacity:1;fill-rule:nonzero;stroke:none" />
    <path
       d="m 316.32648,270.17516 c 0,-22.71575 -19.28828,-42.23465 -21.38016,-42.87831 -0.0172,-0.008 -0.03,-0.0258 -0.048,-0.0258 -0.004,0 -0.0214,0.004 -0.0257,0.004 -0.004,0 -0.0215,-0.004 -0.0258,-0.004 -0.0172,0 -0.03,0.0172 -0.048,0.0258 -2.09188,0.64366 -21.38016,20.16256 -21.38016,42.87831 0,15.63552 12.20268,21.42307 21.40162,21.45525 0.008,0 0.0172,0.004 0.0257,0.004 l 0.0258,0 0.0257,0 c 0.008,0 0.0172,-0.004 0.0258,-0.004 9.19894,-0.03 21.40162,-5.81973 21.40162,-21.45525"
       id="path3189"
       style="fill:#ffffff;fill-opacity:1;fill-rule:nonzero;stroke:none" />
    <path
       d="m 139.3126,404.28063 c -22.7157,0 -42.234606,19.28828 -42.878263,21.3748 -0.0084,0.0172 -0.02569,0.0343 -0.02569,0.0484 0,0.008 0.0042,0.0215 0.0042,0.03 0,0.004 -0.0042,0.0215 -0.0042,0.0215 0,0.0215 0.0172,0.0386 0.02569,0.0536 0.643657,2.08652 20.162563,21.38016 42.878263,21.38016 15.63552,0 21.42307,-12.20267 21.45525,-21.40161 0,-0.008 0.004,-0.0215 0.004,-0.03 l 0,-0.0215 0,-0.03 c 0,-0.008 -0.004,-0.0172 -0.004,-0.0257 -0.0343,-9.19894 -5.81973,-21.39625 -21.45525,-21.39625"
       id="path3193"
       style="fill:#ffffff;fill-opacity:1;fill-rule:nonzero;stroke:none" />
    <path
       d="m 420.03788,330.90532 c 16.06462,-16.05925 16.22553,-43.50052 15.20105,-45.43685 -0.004,-0.0172 -0.004,-0.0429 -0.0172,-0.048 0,-0.004 -0.0172,-0.008 -0.0215,-0.0172 -0.004,-0.004 -0.008,-0.0215 -0.0172,-0.0215 -0.008,-0.0172 -0.03,-0.0172 -0.0536,-0.0172 -1.93098,-1.02985 -29.37224,-0.86357 -45.43686,15.20105 -11.05481,11.05482 -6.52239,23.77242 -0.0386,30.30018 0.004,0.004 0.008,0.0172 0.0172,0.0257 0.004,0.004 0.008,0.0129 0.0214,0.0172 0.004,0.008 0.008,0.0172 0.0172,0.0215 0.008,0.004 0.0172,0.004 0.0257,0.0172 6.52239,6.47949 19.24536,11.01727 30.30017,-0.0429"
       id="path3197"
       style="fill:#ffffff;fill-opacity:1;fill-rule:nonzero;stroke:none" />
    <path
       d="m 200.04327,300.56653 c -16.06462,-16.05927 -43.50052,-16.22554 -45.43685,-15.20105 -0.0172,0 -0.0386,0 -0.0485,0.008 -0.004,0.008 -0.008,0.0215 -0.0215,0.0258 0,0.004 -0.0172,0.0172 -0.0172,0.0172 -0.0172,0.008 -0.0172,0.0386 -0.0215,0.0536 -1.01912,1.93097 -0.85821,29.37224 15.20105,45.43686 11.05482,11.06018 23.77777,6.51703 30.30553,0.0386 0.008,-0.008 0.0215,-0.008 0.0258,-0.0215 0.004,0 0.008,-0.0129 0.0172,-0.0129 0.004,-0.008 0.008,-0.0172 0.0215,-0.0257 0.004,-0.004 0.004,-0.0172 0.0172,-0.0215 6.47949,-6.52239 11.01727,-19.23999 -0.0429,-30.30018"
       id="path3201"
       style="fill:#ffffff;fill-opacity:1;fill-rule:nonzero;stroke:none" />
    <path
       d="m 301.62049,437.57922 c 43.94035,-28.04737 67.67522,-39.77266 90.28904,-42.9534 -13.15743,-41.06535 -51.6106,-70.80768 -97.04208,-70.80768 -56.28248,0 -101.90707,45.62457 -101.90707,101.91242 0,15.99489 3.78685,31.0672 10.3468,44.5411 12.86778,-14.63249 40.60406,-33.34145 98.31331,-32.69244"
       id="path3205"
       style="fill:#ffffff;fill-opacity:1;fill-rule:nonzero;stroke:none" />
  </g>
</svg>
