<?xml version="1.0" encoding="UTF-8" standalone="no"?>
<!-- Created with Inkscape (http://www.inkscape.org/) -->

<svg
   xmlns:dc="http://purl.org/dc/elements/1.1/"
   xmlns:cc="http://creativecommons.org/ns#"
   xmlns:rdf="http://www.w3.org/1999/02/22-rdf-syntax-ns#"
   xmlns:svg="http://www.w3.org/2000/svg"
   xmlns="http://www.w3.org/2000/svg"
   xmlns:sodipodi="http://sodipodi.sourceforge.net/DTD/sodipodi-0.dtd"
   xmlns:inkscape="http://www.inkscape.org/namespaces/inkscape"
   width="500"
   height="500"
   id="svg4503"
   version="1.1"
   inkscape:version="0.48.4 r9939"
   sodipodi:docname="04.svg">
  <defs
     id="defs4505" />
  <sodipodi:namedview
     id="base"
     pagecolor="#ffffff"
     bordercolor="#666666"
     borderopacity="1.0"
     inkscape:pageopacity="0.0"
     inkscape:pageshadow="2"
     inkscape:zoom="0.66"
     inkscape:cx="283.37146"
     inkscape:cy="199.88666"
     inkscape:document-units="px"
     inkscape:current-layer="layer1"
     showgrid="false"
     fit-margin-top="0"
     fit-margin-left="0"
     fit-margin-right="0"
     fit-margin-bottom="0"
     inkscape:window-width="1280"
     inkscape:window-height="746"
     inkscape:window-x="1358"
     inkscape:window-y="-8"
     inkscape:window-maximized="1" />
  <metadata
     id="metadata4508">
    <rdf:RDF>
      <cc:Work
         rdf:about="">
        <dc:format>image/svg+xml</dc:format>
        <dc:type
           rdf:resource="http://purl.org/dc/dcmitype/StillImage" />
        <dc:title></dc:title>
      </cc:Work>
    </rdf:RDF>
  </metadata>
  <g
     inkscape:label="レイヤー 1"
     inkscape:groupmode="layer"
     id="layer1"
     transform="translate(-91.628542,-212.24884)">
    <path
       id="path3485"
       style="fill:#ffffff;fill-opacity:1;fill-rule:nonzero;stroke:none"
       d="m 316.86649,251.62016 c 0,-20.15003 -17.10564,-37.46021 -18.96081,-38.02627 -0.0153,-0.007 -0.0266,-0.0267 -0.0426,-0.0267 -0.004,0 -0.019,0.007 -0.0229,0.007 -0.004,0 -0.019,-0.007 -0.0229,-0.007 -0.0153,0 -0.0266,0.019 -0.0426,0.0267 -1.85517,0.56606 -18.96081,17.87624 -18.96081,38.02627 0,13.86147 10.82183,18.99886 18.97983,19.02741 l 0.0229,0 0.0229,0 0.0229,0 0.0229,0 c 8.158,-0.0267 18.97982,-5.16594 18.97982,-19.02741"
       inkscape:connector-curvature="0" />
    <path
       id="path3489"
       style="fill:#ffffff;fill-opacity:1;fill-rule:nonzero;stroke:none"
       d="m 159.88322,370.55052 c -20.14527,0 -37.45546,17.10564 -38.02627,18.9513 -0.007,0.019 -0.0229,0.0266 -0.0229,0.0476 0,0.007 0.004,0.019 0.004,0.0266 l -0.004,0.019 c 0,0.019 0.0153,0.0267 0.0229,0.0476 0.57081,1.84566 17.881,18.9608 38.02627,18.9608 13.86622,0 18.99887,-10.82183 19.0274,-18.97983 0,-0.007 0.004,-0.019 0.004,-0.0267 l 0,-0.019 0,-0.0266 c 0,-0.007 -0.004,-0.019 -0.004,-0.0266 -0.0304,-8.15799 -5.16118,-18.97031 -19.0274,-18.97031"
       inkscape:connector-curvature="0" />
    <path
       id="path3493"
       style="fill:#ffffff;fill-opacity:1;fill-rule:nonzero;stroke:none"
       d="m 408.84214,305.47823 c 14.24676,-14.24202 14.38947,-38.58283 13.48091,-40.29529 0,-0.019 0,-0.0381 -0.0153,-0.0426 -0.004,-0.007 -0.0153,-0.007 -0.019,-0.019 -0.004,0 -0.007,-0.019 -0.0153,-0.019 -0.007,-0.007 -0.0267,-0.007 -0.0476,-0.007 -1.71247,-0.91332 -26.04852,-0.77061 -40.29053,13.48091 -9.80864,9.79913 -5.7891,21.07761 -0.0381,26.8667 0.007,0.007 0.007,0.019 0.0153,0.0266 0.004,0 0.0153,0.007 0.019,0.007 0.004,0.007 0.007,0.019 0.0153,0.019 0.007,0.007 0.019,0.007 0.0229,0.019 5.78432,5.74152 17.06757,9.76582 26.87145,-0.0381"
       inkscape:connector-curvature="0" />
    <path
       id="path3497"
       style="fill:#ffffff;fill-opacity:1;fill-rule:nonzero;stroke:none"
       d="m 213.74175,278.57252 c -14.24678,-14.24201 -38.57807,-14.38948 -40.2953,-13.48092 -0.0153,0 -0.0342,0 -0.0426,0.007 -0.004,0.007 -0.007,0.019 -0.019,0.019 0,0.007 -0.0153,0.019 -0.0153,0.019 -0.0153,0.007 -0.0153,0.0266 -0.019,0.0476 -0.9038,1.70771 -0.76109,26.04852 13.48092,40.29054 9.80388,9.81338 21.08713,5.77957 26.87622,0.0381 0.007,-0.007 0.019,-0.007 0.0228,-0.019 0.004,0 0.007,-0.007 0.0153,-0.007 0.004,-0.007 0.007,-0.019 0.019,-0.0266 0.004,0 0.004,-0.0114 0.0153,-0.019 5.74628,-5.78433 9.77057,-17.06283 -0.0381,-26.8667"
       inkscape:connector-curvature="0" />
    <path
       id="path3501"
       style="fill:#ffffff;fill-opacity:1;fill-rule:nonzero;stroke:none"
       d="m 303.82461,400.0763 c 38.96814,-24.87358 60.01245,-35.2673 80.07209,-38.09287 -11.66855,-36.41846 -45.77043,-62.79521 -86.06096,-62.79521 -49.91366,0 -90.37543,40.46178 -90.37543,90.38019 0,14.18493 3.35833,27.55645 9.17596,39.50566 11.41169,-12.98146 36.00937,-29.57335 87.18834,-28.99777"
       inkscape:connector-curvature="0" />
    <path
       id="path3505"
       style="fill:#ffffff;fill-opacity:1;fill-rule:nonzero;stroke:none"
       d="m 479.42861,651.55775 c -42.6119,0 -76.14769,-19.20341 -103.03818,-34.60135 -24.75467,-14.17065 -40.57596,-22.63309 -53.57167,-18.01894 -9.90377,3.52482 -20.78268,-1.6649 -24.29324,-11.56392 -3.51531,-9.90376 1.6649,-20.78268 11.56867,-24.29799 30.11087,-10.68389 58.11922,5.3467 85.19997,20.85403 38.40206,21.98142 78.09799,44.71441 138.25791,16.24941 9.49468,-4.49998 20.83976,-0.44239 25.33499,9.0618 4.49523,9.49944 0.43763,20.83978 -9.05704,25.335 -25.89631,12.25365 -49.27148,16.97721 -70.40141,16.98196"
       inkscape:connector-curvature="0" />
    <path
       id="path3509"
       style="fill:#ffffff;fill-opacity:1;fill-rule:nonzero;stroke:none"
       d="m 479.45189,584.86905 c -30.67693,0 -55.74079,-14.8176 -79.97695,-29.14999 -21.52475,-12.73409 -41.86506,-24.75942 -63.91782,-24.75942 -10.5079,0 -19.02741,-8.51952 -19.02741,-19.02741 0,-10.50788 8.51951,-19.0274 19.02741,-19.0274 32.46076,0 59.47017,15.96874 83.29247,30.05854 20.73988,12.26317 40.3286,23.85086 60.6023,23.85086 10.50789,0 19.02741,8.51952 19.02741,19.0274 0,10.5079 -8.51952,19.02742 -19.02741,19.02742"
       inkscape:connector-curvature="0" />
    <path
       id="path3513"
       style="fill:#ffffff;fill-opacity:1;fill-rule:nonzero;stroke:none"
       d="m 419.18257,710.93042 c -3.73888,0 -7.51581,-1.09407 -10.81708,-3.38688 -5.32291,-3.68181 -10.33188,-7.24945 -15.13154,-10.66486 -33.80696,-24.06492 -52.42527,-37.3413 -93.13917,-31.71393 -10.43178,1.40327 -20.01208,-5.85093 -21.43912,-16.25416 -1.43658,-10.41276 5.84141,-20.01209 16.25416,-21.44866 55.67419,-7.6728 84.22957,12.6675 120.39117,38.41159 4.67122,3.3298 9.55176,6.8023 14.72721,10.38896 8.64319,5.98412 10.79329,17.83819 4.80918,26.47188 -3.69133,5.33244 -9.62312,8.19606 -15.65481,8.19606"
       inkscape:connector-curvature="0" />
    <path
       id="path3517"
       style="fill:#ffffff;fill-opacity:1;fill-rule:nonzero;stroke:none"
       d="m 509.19127,421.16198 c -22.48564,-45.04263 -68.4178,-73.70268 -119.25428,-73.70268 -37.27469,0 -72.13766,15.26475 -97.30616,42.2361 -4.21933,-0.50422 -8.41964,-0.75634 -12.57236,-0.75634 -60.28835,0 -109.33624,49.04315 -109.33624,109.33625 0,60.28835 49.04789,109.33624 109.33624,109.33624 14.06125,0 27.97029,-2.76848 40.98028,-8.0581 l -11.5544,-36.44225 c -9.26159,4.22884 -19.28904,6.47408 -29.42588,6.47408 -39.32015,0 -71.30522,-31.98984 -71.30522,-71.30997 0,-39.3249 31.98507,-71.30521 71.30522,-71.30521 5.13263,0 10.44128,0.61363 15.78799,1.82187 l 11.72564,2.65432 7.42545,-9.45662 c 18.21873,-23.18965 45.53258,-36.49457 74.93944,-36.49457 38.34974,0 72.79411,22.81861 87.74965,58.13825 l 3.42494,8.07713 8.36255,2.64481 c 19.90266,6.2838 33.28369,24.53584 33.28369,45.42318 0,24.3313 -18.34243,44.42424 -41.92214,47.26884 l 0,38.11666 c 44.56695,-2.96828 79.94841,-40.07172 79.94841,-85.3855 0,-34.58707 -20.40214,-65.16887 -51.59282,-78.61649"
       inkscape:connector-curvature="0" />
  </g>
</svg>
