<?xml version="1.0" encoding="UTF-8" standalone="no"?>
<!-- Created with Inkscape (http://www.inkscape.org/) -->

<svg
   xmlns:dc="http://purl.org/dc/elements/1.1/"
   xmlns:cc="http://creativecommons.org/ns#"
   xmlns:rdf="http://www.w3.org/1999/02/22-rdf-syntax-ns#"
   xmlns:svg="http://www.w3.org/2000/svg"
   xmlns="http://www.w3.org/2000/svg"
   version="1.1"
   width="500"
   height="500"
   id="svg4503">
  <defs
     id="defs4505" />
  <metadata
     id="metadata4508">
    <rdf:RDF>
      <cc:Work
         rdf:about="">
        <dc:format>image/svg+xml</dc:format>
        <dc:type
           rdf:resource="http://purl.org/dc/dcmitype/StillImage" />
        <dc:title></dc:title>
      </cc:Work>
    </rdf:RDF>
  </metadata>
  <g
     transform="translate(-91.628542,-212.24884)"
     id="layer1">
    <path
       d="m 325.70702,521.90688 8.79513,5.89402 c 13.7625,9.22508 29.83334,14.10478 46.46771,14.10478 20.63328,0 40.45261,-7.58878 55.80548,-21.37632 l 5.72706,-5.14266 7.63471,1.02269 c 2.19981,0.2922 3.96969,0.42994 5.58094,0.42994 23.05019,0 41.8009,-18.75488 41.8009,-41.80506 0,-18.33329 -11.72963,-34.34986 -29.20302,-39.86404 l -7.33831,-2.32088 -2.99712,-7.08787 c -13.128,-30.99377 -43.34953,-51.01762 -77.01064,-51.01762 -25.80519,0 -49.77371,11.67535 -65.75689,32.0248 l -6.52018,8.29839 -10.28951,-2.32922 c -4.68768,-1.06025 -9.35031,-1.59874 -13.85014,-1.59874 -34.50432,0 -62.57612,28.06345 -62.57612,62.57194 0,34.50432 28.0718,62.57612 62.57612,62.57612 11.22871,0 22.31969,-3.09311 32.07907,-8.93706 l 9.07481,-5.44321 z m 55.26284,53.36772 c -19.85689,0 -39.14608,-4.96736 -56.35232,-14.45541 -12.56448,5.80636 -26.2393,8.83687 -40.0644,8.83687 -52.90439,0 -95.94503,-43.04065 -95.94503,-95.94503 0,-52.90856 43.04064,-95.94502 95.94503,-95.94502 3.64411,0 7.3258,0.22106 11.02835,0.6637 22.08593,-23.66797 52.68316,-37.06312 85.38837,-37.06312 44.61432,0 84.91666,25.14982 104.64832,64.67575 27.37053,11.8006 45.27803,38.63681 45.27803,68.99193 0,41.45443 -33.72789,75.17398 -75.17816,75.17398 -0.78057,0 -1.56533,-0.0166 -2.35425,-0.0417 -20.58738,16.24616 -46.01272,25.10809 -72.39394,25.10809"
       id="path3261"
       style="fill:#ffffff;fill-opacity:1;fill-rule:nonzero;stroke:none" />
    <path
       d="m 319.07081,253.62185 c 0,-17.67793 -15.01477,-32.868 -16.63855,-33.36892 -0.0134,-0.007 -0.0234,-0.02 -0.0417,-0.02 0,0 -0.0134,0.003 -0.0168,0.003 -0.0104,0 -0.0168,-0.003 -0.0267,-0.003 -0.0134,0 -0.0234,0.0134 -0.0375,0.02 -1.62379,0.50092 -16.63436,15.69099 -16.63436,33.36892 0,12.16792 9.49222,16.67193 16.65523,16.69698 0.003,0 0.007,0.003 0.0166,0.003 l 0.0267,0 0.0167,0 c 0.0134,0 0.0168,-0.003 0.0234,-0.003 7.15883,-0.0234 16.65523,-4.52906 16.65523,-16.69698"
       id="path3265"
       style="fill:#ffffff;fill-opacity:1;fill-rule:nonzero;stroke:none" />
    <path
       d="m 181.31237,357.9859 c -17.6779,0 -32.86799,15.01058 -33.3689,16.63437 -0.007,0.0134 -0.02,0.0267 -0.02,0.0378 0,0.007 0.004,0.0168 0.004,0.0234 0,0.003 -0.004,0.0166 -0.004,0.0166 0,0.0168 0.0134,0.0301 0.02,0.0417 0.50091,1.62379 15.691,16.63855 33.3689,16.63855 12.16791,0 16.67193,-9.49641 16.69697,-16.65524 0,-0.007 0.003,-0.0167 0.003,-0.0234 l 0,-0.0168 0,-0.0234 c 0,-0.007 -0.003,-0.0134 -0.003,-0.02 -0.0267,-7.15884 -4.52906,-16.65108 -16.69697,-16.65108"
       id="path3269"
       style="fill:#ffffff;fill-opacity:1;fill-rule:nonzero;stroke:none" />
    <path
       d="m 399.77984,300.88348 c 12.50187,-12.49769 12.62291,-33.85312 11.83399,-35.36003 -0.007,-0.0134 -0.007,-0.0334 -0.0167,-0.0375 0,-0.003 -0.0134,-0.007 -0.0168,-0.0134 -0.003,-0.003 -0.007,-0.0168 -0.0134,-0.0168 -0.0134,-0.0134 -0.0301,-0.0134 -0.0417,-0.0134 -1.50272,-0.80145 -22.85817,-0.67206 -35.36002,11.82982 -8.60312,8.60312 -5.07171,18.50024 -0.0234,23.58031 0,0.003 0.003,0.0134 0.007,0.02 0.007,0.003 0.007,0.0104 0.0168,0.0134 0.003,0.007 0.007,0.0134 0.0167,0.0168 0.003,0.003 0.007,0.003 0.0168,0.0134 5.07588,5.04249 14.97302,8.57389 23.58031,-0.0334"
       id="path3273"
       style="fill:#ffffff;fill-opacity:1;fill-rule:nonzero;stroke:none" />
    <path
       d="m 228.57444,277.27313 c -12.49769,-12.4977 -33.85313,-12.6271 -35.36003,-11.82982 -0.0167,0 -0.0334,0 -0.0375,0.007 -0.003,0.007 -0.007,0.0168 -0.0166,0.02 0,0.003 -0.0134,0.0134 -0.0134,0.0134 -0.0134,0.007 -0.0134,0.0301 -0.0134,0.0417 -0.80144,1.50273 -0.67204,22.85817 11.82981,35.36003 8.59897,8.6073 18.50027,5.07171 23.58032,0.0301 0.003,-0.007 0.0134,-0.007 0.02,-0.0168 0.003,0 0.007,-0.0104 0.0134,-0.0104 0.003,-0.007 0.0134,-0.0134 0.0168,-0.02 0.003,-0.003 0.003,-0.0134 0.0134,-0.0168 5.04666,-5.07588 8.5739,-14.97302 -0.0334,-23.58031"
       id="path3277"
       style="fill:#ffffff;fill-opacity:1;fill-rule:nonzero;stroke:none" />
    <path
       d="m 307.62418,383.89964 c 34.19542,-21.82713 52.66646,-30.95204 70.26507,-33.42735 -10.23524,-31.95802 -40.16458,-55.10421 -75.52043,-55.10421 -43.80036,0 -79.30648,35.50612 -79.30648,79.31065 0,12.4476 2.94283,24.17724 8.05628,34.66294 10.00984,-11.38735 31.59486,-25.94711 76.50556,-25.44203"
       id="path3281"
       style="fill:#ffffff;fill-opacity:1;fill-rule:nonzero;stroke:none" />
    <path
       d="m 361.01278,647.07702 c -9.22091,0 -16.69698,7.47608 -16.69698,16.69699 l 0,32.8847 c 0,9.22508 7.47607,16.69698 16.69698,16.69698 9.22091,0 16.69698,-7.4719 16.69698,-16.69698 l 0,-32.8847 c 0,-9.22091 -7.47607,-16.69699 -16.69698,-16.69699"
       id="path3285"
       style="fill:#ffffff;fill-opacity:1;fill-rule:nonzero;stroke:none" />
    <path
       d="m 361.01278,555.75329 c -9.22091,0 -16.69698,7.47607 -16.69698,16.69697 l 0,32.88472 c 0,9.22507 7.47607,16.69697 16.69698,16.69697 9.22091,0 16.69698,-7.4719 16.69698,-16.69697 l 0,-32.88472 c 0,-9.2209 -7.47607,-16.69697 -16.69698,-16.69697"
       id="path3289"
       style="fill:#ffffff;fill-opacity:1;fill-rule:nonzero;stroke:none" />
    <path
       d="m 285.87637,614.19273 c -9.22091,0 -16.69698,7.47606 -16.69698,16.69697 l 0,32.88471 c 0,9.22507 7.47607,16.69697 16.69698,16.69697 9.22091,0 16.69698,-7.4719 16.69698,-16.69697 l 0,-32.88471 c 0,-9.22091 -7.47607,-16.69697 -16.69698,-16.69697"
       id="path3293"
       style="fill:#ffffff;fill-opacity:1;fill-rule:nonzero;stroke:none" />
    <path
       d="m 436.14919,614.19273 c -9.22089,0 -16.69697,7.47606 -16.69697,16.69697 l 0,32.88471 c 0,9.22507 7.47608,16.69697 16.69697,16.69697 9.22091,0 16.69699,-7.4719 16.69699,-16.69697 l 0,-32.88471 c 0,-9.22091 -7.47608,-16.69697 -16.69699,-16.69697"
       id="path3297"
       style="fill:#ffffff;fill-opacity:1;fill-rule:nonzero;stroke:none" />
    <path
       d="m 269.17939,555.77753 0,16.67193 c 0,9.2251 7.47607,16.697 16.69698,16.697 9.22091,0 16.69698,-7.4719 16.69698,-16.697 l 0,-11.48334 c -11.04504,1.84918 -21.70608,0.003 -33.39396,-5.18859"
       id="path3301"
       style="fill:#ffffff;fill-opacity:1;fill-rule:nonzero;stroke:none" />
    <path
       d="m 419.45222,557.00058 0,15.44888 c 0,9.2251 7.47608,16.697 16.69697,16.697 9.22091,0 16.69699,-7.4719 16.69699,-16.697 l 0,-31.04803 c -8.65321,4.07407 -23.36325,10.98244 -33.39396,15.59915"
       id="path3305"
       style="fill:#ffffff;fill-opacity:1;fill-rule:nonzero;stroke:none" />
  </g>
</svg>
