<?xml version="1.0" encoding="UTF-8" standalone="no"?>
<!-- Created with Inkscape (http://www.inkscape.org/) -->

<svg
   xmlns:dc="http://purl.org/dc/elements/1.1/"
   xmlns:cc="http://creativecommons.org/ns#"
   xmlns:rdf="http://www.w3.org/1999/02/22-rdf-syntax-ns#"
   xmlns:svg="http://www.w3.org/2000/svg"
   xmlns="http://www.w3.org/2000/svg"
   xmlns:sodipodi="http://sodipodi.sourceforge.net/DTD/sodipodi-0.dtd"
   xmlns:inkscape="http://www.inkscape.org/namespaces/inkscape"
   width="500"
   height="500"
   id="svg4503"
   version="1.1"
   inkscape:version="0.48.4 r9939"
   sodipodi:docname="06.svg">
  <defs
     id="defs4505" />
  <sodipodi:namedview
     id="base"
     pagecolor="#ffffff"
     bordercolor="#666666"
     borderopacity="1.0"
     inkscape:pageopacity="0.0"
     inkscape:pageshadow="2"
     inkscape:zoom="0.66"
     inkscape:cx="283.37146"
     inkscape:cy="199.88666"
     inkscape:document-units="px"
     inkscape:current-layer="layer1"
     showgrid="false"
     fit-margin-top="0"
     fit-margin-left="0"
     fit-margin-right="0"
     fit-margin-bottom="0"
     inkscape:window-width="1280"
     inkscape:window-height="746"
     inkscape:window-x="1358"
     inkscape:window-y="-8"
     inkscape:window-maximized="1" />
  <metadata
     id="metadata4508">
    <rdf:RDF>
      <cc:Work
         rdf:about="">
        <dc:format>image/svg+xml</dc:format>
        <dc:type
           rdf:resource="http://purl.org/dc/dcmitype/StillImage" />
        <dc:title></dc:title>
      </cc:Work>
    </rdf:RDF>
  </metadata>
  <g
     inkscape:label="レイヤー 1"
     inkscape:groupmode="layer"
     id="layer1"
     transform="translate(-91.628542,-212.24884)">
    <path
       id="path3309"
       style="fill:#ffffff;fill-opacity:1;fill-rule:nonzero;stroke:none"
       d="m 324.39696,528.21535 9.17111,6.15184 c 14.36877,9.62857 31.13817,14.72168 48.50446,14.72168 21.5401,0 42.22192,-7.9207 58.24629,-22.31126 l 5.98191,-5.36761 7.96862,1.06743 c 2.28732,0.30498 4.14332,0.44875 5.82071,0.44875 24.05834,0 43.63353,-19.57519 43.63353,-43.63352 0,-19.13515 -12.25138,-35.85227 -30.4803,-41.60761 l -7.66365,-2.42241 -3.13256,-7.39786 c -13.69782,-32.34938 -45.24554,-53.24903 -80.37455,-53.24903 -26.92949,0 -51.9507,12.18602 -68.63731,33.4255 l -6.79664,8.66135 -10.73956,-2.43111 c -4.89706,-1.10662 -9.75928,-1.66865 -14.46464,-1.66865 -36.01346,0 -65.3087,29.29089 -65.3087,65.3087 0,36.01345 29.29524,65.31305 65.3087,65.31305 11.7242,0 23.30462,-3.2284 33.48214,-9.32794 l 9.48044,-5.6813 z m 57.67557,55.70192 c -20.72539,0 -40.85825,-5.18461 -58.81705,-15.08765 -13.11403,6.06033 -27.38259,9.22338 -41.8211,9.22338 -55.21831,0 -100.14145,-44.92315 -100.14145,-100.14146 0,-55.22267 44.92314,-100.14146 100.14145,-100.14146 3.80351,0 7.65493,0.23108 11.51944,0.69273 23.05192,-24.70315 54.97868,-38.68418 89.11871,-38.68418 46.56566,0 88.6351,26.24983 109.22977,67.50453 28.5633,12.31674 47.24969,40.32671 47.24969,72.0095 0,43.26754 -35.19873,78.46192 -78.46193,78.46192 -0.81037,0 -1.62946,-0.0175 -2.45726,-0.0436 -21.48346,16.95674 -48.02084,26.20625 -75.56027,26.20625"
       inkscape:connector-curvature="0" />
    <path
       id="path3313"
       style="fill:#ffffff;fill-opacity:1;fill-rule:nonzero;stroke:none"
       d="m 317.46181,248.19654 c 0,-18.45112 -15.66712,-34.30559 -17.36191,-34.82839 -0.0139,-0.007 -0.0244,-0.0209 -0.039,-0.0209 -0.007,0 -0.0174,0.004 -0.0278,0.004 -0.003,0 -0.0175,-0.004 -0.0175,-0.004 -0.0174,0 -0.0314,0.0139 -0.0436,0.0209 -1.69479,0.5228 -17.36627,16.37727 -17.36627,34.82839 0,12.70012 9.91175,17.40112 17.3837,17.42728 0.007,0 0.0175,0.003 0.0244,0.003 l 0.0175,0 0.0278,0 c 0.007,0 0.0139,-0.003 0.0209,-0.003 7.47195,-0.0244 17.37934,-4.72716 17.37934,-17.42728"
       inkscape:connector-curvature="0" />
    <path
       id="path3317"
       style="fill:#ffffff;fill-opacity:1;fill-rule:nonzero;stroke:none"
       d="m 173.68243,357.12529 c -18.45108,0 -34.30554,15.66711 -34.82836,17.36191 -0.007,0.0139 -0.0209,0.0244 -0.0209,0.0394 0,0.007 0.003,0.0174 0.003,0.0244 0,0.004 -0.003,0.0175 -0.003,0.0175 0,0.0174 0.0139,0.0314 0.0209,0.0436 0.52282,1.69479 16.37728,17.36627 34.82836,17.36627 12.70013,0 17.40113,-9.91176 17.42728,-17.3837 0,-0.007 0.003,-0.0175 0.003,-0.0244 l 0,-0.0174 0,-0.0244 c 0,-0.007 -0.003,-0.0139 -0.003,-0.0209 -0.0278,-7.47195 -4.72715,-17.37935 -17.42728,-17.37935"
       inkscape:connector-curvature="0" />
    <path
       id="path3321"
       style="fill:#ffffff;fill-opacity:1;fill-rule:nonzero;stroke:none"
       d="m 401.70483,297.52534 c 13.04867,-13.04431 13.17937,-35.33378 12.34722,-36.9066 0,-0.0139 0,-0.0348 -0.0139,-0.039 -0.003,-0.004 -0.0139,-0.007 -0.0175,-0.0139 -0.003,-0.003 -0.007,-0.0174 -0.0139,-0.0174 -0.007,-0.0139 -0.0244,-0.0139 -0.0436,-0.0139 -1.56846,-0.83651 -23.85793,-0.70146 -36.90224,12.34722 -8.98376,8.9794 -5.30226,19.30941 -0.0348,24.61166 0.0112,0.003 0.0112,0.0139 0.0139,0.0209 0.003,0.004 0.0139,0.007 0.0175,0.0139 0.003,0.007 0.007,0.0139 0.0139,0.0174 0.007,0.003 0.0175,0.003 0.0209,0.0139 5.29789,5.26303 15.63225,8.94889 24.61166,-0.0348"
       inkscape:connector-curvature="0" />
    <path
       id="path3325"
       style="fill:#ffffff;fill-opacity:1;fill-rule:nonzero;stroke:none"
       d="m 223.01165,272.8823 c -13.04867,-13.04431 -35.33379,-13.17936 -36.9066,-12.34722 -0.0139,0 -0.0314,0 -0.039,0.007 -0.004,0.007 -0.007,0.0174 -0.0139,0.0209 -0.003,0.003 -0.0174,0.0139 -0.0174,0.0139 -0.0139,0.0112 -0.0139,0.0314 -0.0175,0.0436 -0.8278,1.56846 -0.6971,23.85793 12.34722,36.90661 8.9794,8.98376 19.31377,5.29352 24.61602,0.0314 0.007,-0.0112 0.0175,-0.0112 0.0209,-0.0175 0.003,0 0.007,-0.007 0.0139,-0.007 0.003,-0.007 0.007,-0.0139 0.0174,-0.0209 0.007,-0.003 0.007,-0.0139 0.0139,-0.0175 5.26304,-5.29789 8.94891,-15.6279 -0.0348,-24.61167"
       inkscape:connector-curvature="0" />
    <path
       id="path3329"
       style="fill:#ffffff;fill-opacity:1;fill-rule:nonzero;stroke:none"
       d="m 305.51887,384.1724 c 35.69106,-22.7818 54.96562,-32.3058 73.33831,-34.88939 -10.68727,-33.3558 -41.91694,-57.51435 -78.82353,-57.51435 -45.72046,0 -82.77954,37.05909 -82.77954,82.77953 0,12.99203 3.08025,25.2347 8.40866,36.17902 10.44764,-11.8854 32.9811,-27.08197 79.8561,-26.55481"
       inkscape:connector-curvature="0" />
    <path
       id="path3333"
       style="fill:#ffffff;fill-opacity:1;fill-rule:nonzero;stroke:none"
       d="m 430.18587,695.23834 c 0,9.6242 7.80305,17.42726 17.42726,17.42726 9.62421,0 17.42728,-7.80306 17.42728,-17.42726 0,-9.62423 -7.80307,-17.42728 -17.42728,-17.42728 -9.62421,0 -17.42726,7.80305 -17.42726,17.42728"
       inkscape:connector-curvature="0" />
    <path
       id="path3337"
       style="fill:#ffffff;fill-opacity:1;fill-rule:nonzero;stroke:none"
       d="m 343.04938,660.38379 c 0,9.62421 7.80305,17.42727 17.42726,17.42727 9.62421,0 17.42728,-7.80306 17.42728,-17.42727 0,-9.62421 -7.80307,-17.42728 -17.42728,-17.42728 -9.62421,0 -17.42726,7.80307 -17.42726,17.42728"
       inkscape:connector-curvature="0" />
    <path
       id="path3341"
       style="fill:#ffffff;fill-opacity:1;fill-rule:nonzero;stroke:none"
       d="m 482.46768,660.38379 c 0,9.62421 7.80307,17.42727 17.42728,17.42727 9.6242,0 17.42726,-7.80306 17.42726,-17.42727 0,-9.62421 -7.80306,-17.42728 -17.42726,-17.42728 -9.62421,0 -17.42728,7.80307 -17.42728,17.42728"
       inkscape:connector-curvature="0" />
    <path
       id="path3345"
       style="fill:#ffffff;fill-opacity:1;fill-rule:nonzero;stroke:none"
       d="m 432.26215,703.47969 -69.70909,-129.88982 30.71122,-16.48184 69.70909,129.88981 -30.71122,16.48185 z"
       inkscape:connector-curvature="0" />
    <path
       id="path3349"
       style="fill:#ffffff;fill-opacity:1;fill-rule:nonzero;stroke:none"
       d="m 484.54397,668.62515 -57.66248,-107.43914 30.70685,-16.48184 57.66684,107.43913 -30.71121,16.48185 z"
       inkscape:connector-curvature="0" />
    <path
       id="path3353"
       style="fill:#ffffff;fill-opacity:1;fill-rule:nonzero;stroke:none"
       d="m 345.12583,668.62515 -57.66248,-107.43914 30.70686,-16.48184 57.66683,107.43913 -30.71121,16.48185 z"
       inkscape:connector-curvature="0" />
  </g>
</svg>
