<?xml version="1.0" encoding="UTF-8" standalone="no"?>
<!-- Created with Inkscape (http://www.inkscape.org/) -->

<svg
   xmlns:dc="http://purl.org/dc/elements/1.1/"
   xmlns:cc="http://creativecommons.org/ns#"
   xmlns:rdf="http://www.w3.org/1999/02/22-rdf-syntax-ns#"
   xmlns:svg="http://www.w3.org/2000/svg"
   xmlns="http://www.w3.org/2000/svg"
   version="1.1"
   width="500"
   height="500"
   id="svg4503">
  <defs
     id="defs4505" />
  <metadata
     id="metadata4508">
    <rdf:RDF>
      <cc:Work
         rdf:about="">
        <dc:format>image/svg+xml</dc:format>
        <dc:type
           rdf:resource="http://purl.org/dc/dcmitype/StillImage" />
        <dc:title></dc:title>
      </cc:Work>
    </rdf:RDF>
  </metadata>
  <g
     transform="translate(-91.628542,-212.24884)"
     id="layer1">
    <path
       d="m 327.73845,545.04365 9.6405,6.46363 c 15.09705,10.11658 32.71637,15.46783 50.96284,15.46783 22.62725,0 44.3573,-8.32214 61.19843,-23.44207 l 6.28052,-5.63965 8.3725,1.12152 c 2.40783,0.32044 4.35333,0.47149 6.11571,0.47149 25.27772,0 45.845,-20.56732 45.845,-45.84503 0,-20.10499 -12.86773,-37.66938 -32.02511,-43.71643 l -8.04749,-2.54517 -3.29132,-7.77283 c -14.39666,-33.98896 -47.53875,-55.94788 -84.44824,-55.94788 -28.29895,0 -54.58375,12.80365 -72.11609,35.11963 l -7.1457,9.10034 -11.28387,-2.55431 c -5.14526,-1.16272 -10.25391,-1.75325 -15.19318,-1.75325 -37.83874,0 -68.61877,30.77546 -68.61877,68.61879 0,37.83874 30.78003,68.62335 68.61877,68.62335 12.31842,0 24.4812,-3.39202 35.17914,-9.80072 l 9.95636,-5.96924 z m 60.60334,58.5251 c -21.77582,0 -42.92909,-5.44739 -61.7981,-15.85236 -13.78326,6.36749 -28.77502,9.69085 -43.94074,9.69085 -58.01697,0 -105.21698,-47.20001 -105.21698,-105.21698 0,-58.02155 47.20001,-105.21699 105.21698,-105.21699 3.99628,0 8.03833,0.24244 12.0987,0.72785 24.22027,-25.9552 57.76978,-40.64484 93.64014,-40.64484 48.9212,0 93.12286,27.58026 114.76132,70.9259 30.01556,12.94098 49.64905,42.37062 49.64905,75.65919 0,45.46052 -36.98273,82.43866 -82.44321,82.43866 -0.85143,0 -1.71203,-0.0183 -2.5772,-0.0458 -22.57691,17.81617 -50.45929,27.5345 -79.38996,27.5345"
       id="path3357"
       style="fill:#ffffff;fill-opacity:1;fill-rule:nonzero;stroke:none" />
    <path
       d="m 320.45635,250.83205 c 0,-19.38629 -16.46119,-36.04433 -18.24647,-36.59364 -0.0147,-0.007 -0.0256,-0.022 -0.041,-0.022 -0.003,0 -0.0183,0.003 -0.022,0.003 -0.003,0 -0.0183,-0.003 -0.022,-0.003 -0.0147,0 -0.0293,0.0147 -0.0413,0.022 -1.78529,0.54931 -18.24648,17.20735 -18.24648,36.59364 0,13.34381 10.41414,18.28307 18.26478,18.31054 0.007,0 0.0147,0.003 0.022,0.003 l 0.022,0 0.022,0 c 0.007,0 0.0147,-0.003 0.022,-0.003 7.85065,-0.0256 18.26477,-4.96673 18.26477,-18.31054"
       id="path3361"
       style="fill:#ffffff;fill-opacity:1;fill-rule:nonzero;stroke:none" />
    <path
       d="m 169.38789,365.28215 c -19.3863,0 -36.04433,16.4612 -36.59364,18.24189 -0.007,0.0147 -0.022,0.0256 -0.022,0.041 0,0.007 0.003,0.0183 0.003,0.0256 0,0.003 -0.003,0.0183 -0.003,0.0183 0,0.0183 0.0147,0.0329 0.022,0.0458 0.54931,1.7807 17.20734,18.24646 36.59364,18.24646 13.34381,0 18.28307,-10.41413 18.31054,-18.26477 0,-0.007 0.003,-0.0183 0.003,-0.0256 l 0,-0.0183 0,-0.0256 c 0,-0.007 -0.003,-0.0147 -0.003,-0.022 -0.0293,-7.85065 -4.96673,-18.26019 -18.31054,-18.26019"
       id="path3365"
       style="fill:#ffffff;fill-opacity:1;fill-rule:nonzero;stroke:none" />
    <path
       d="m 408.96723,302.66144 c 13.71003,-13.70545 13.84736,-37.12463 12.97302,-38.77717 -0.003,-0.0147 -0.003,-0.0367 -0.0147,-0.0413 0,-0.003 -0.0147,-0.007 -0.0183,-0.0147 -0.003,-0.003 -0.007,-0.0183 -0.0147,-0.0183 -0.007,-0.0147 -0.0256,-0.0147 -0.0458,-0.0147 -1.64794,-0.8789 -25.06714,-0.737 -38.77716,12.97303 -9.4345,9.4345 -5.56641,20.28809 -0.0329,25.85907 0.003,0.003 0.007,0.0147 0.0147,0.022 0.003,0.003 0.007,0.007 0.0183,0.0147 0.003,0.007 0.007,0.0147 0.0147,0.0183 0.007,0.003 0.0147,0.003 0.022,0.0147 5.5664,5.52979 16.42455,9.40246 25.85907,-0.0367"
       id="path3369"
       style="fill:#ffffff;fill-opacity:1;fill-rule:nonzero;stroke:none" />
    <path
       d="m 221.21681,276.76941 c -13.71003,-13.70545 -37.12464,-13.84735 -38.77717,-12.97303 -0.0147,0 -0.0329,0 -0.041,0.007 -0.003,0.007 -0.011,0.0183 -0.0183,0.022 0,0.003 -0.0147,0.0147 -0.0147,0.0147 -0.0147,0.007 -0.0147,0.0329 -0.0183,0.0458 -0.86975,1.64795 -0.73242,25.06713 12.97303,38.77716 9.4345,9.43909 20.29267,5.56183 25.86364,0.033 0.007,-0.007 0.0183,-0.007 0.022,-0.0183 0.003,0 0.007,-0.007 0.0147,-0.007 0.003,-0.007 0.007,-0.0147 0.0183,-0.022 0.003,-0.003 0.003,-0.0147 0.0147,-0.0183 5.52979,-5.56641 9.40247,-16.41999 -0.0367,-25.85908"
       id="path3373"
       style="fill:#ffffff;fill-opacity:1;fill-rule:nonzero;stroke:none" />
    <path
       d="m 307.90582,393.70013 c 37.5,-23.93646 57.75605,-33.94318 77.05536,-36.65772 -11.22894,-35.04639 -44.04602,-60.42938 -82.81861,-60.42938 -48.03313,0 -86.97052,38.93738 -86.97052,86.9751 0,13.65051 3.23182,26.51367 8.83026,38.0127 10.98176,-12.4878 34.65272,-28.45459 83.90351,-27.9007"
       id="path3377"
       style="fill:#ffffff;fill-opacity:1;fill-rule:nonzero;stroke:none" />
    <path
       d="m 326.09596,587.06959 101.46791,123.21167 -38.9145,-123.21167 -62.55341,0 z"
       id="path3381"
       style="fill:#ffffff;fill-opacity:1;fill-rule:nonzero;stroke:none" />
    <path
       d="m 460.74946,619.11304 -101.4679,-123.21167 38.91448,123.21167 62.55342,0 z"
       id="path3385"
       style="fill:#ffffff;fill-opacity:1;fill-rule:nonzero;stroke:none" />
  </g>
</svg>
