<?xml version="1.0" encoding="UTF-8" standalone="no"?>
<!-- Created with Inkscape (http://www.inkscape.org/) -->

<svg
   xmlns:dc="http://purl.org/dc/elements/1.1/"
   xmlns:cc="http://creativecommons.org/ns#"
   xmlns:rdf="http://www.w3.org/1999/02/22-rdf-syntax-ns#"
   xmlns:svg="http://www.w3.org/2000/svg"
   xmlns="http://www.w3.org/2000/svg"
   version="1.1"
   width="500"
   height="500"
   id="svg4503">
  <defs
     id="defs4505" />
  <metadata
     id="metadata4508">
    <rdf:RDF>
      <cc:Work
         rdf:about="">
        <dc:format>image/svg+xml</dc:format>
        <dc:type
           rdf:resource="http://purl.org/dc/dcmitype/StillImage" />
        <dc:title></dc:title>
      </cc:Work>
    </rdf:RDF>
  </metadata>
  <g
     transform="translate(-91.628542,-212.24884)"
     id="layer1">
    <path
       d="m 323.54683,529.70789 9.20847,6.17395 c 14.42047,9.66321 31.25017,14.77464 48.67892,14.77464 21.61322,0 42.36943,-7.94918 58.45581,-22.39151 l 5.99906,-5.38691 7.99729,1.07126 c 2.29993,0.30607 4.15823,0.45036 5.84164,0.45036 24.14488,0 43.79048,-19.64559 43.79048,-43.79048 0,-19.20397 -12.29107,-35.98122 -30.58993,-41.75727 l -7.68684,-2.43111 -3.14383,-7.42448 c -13.75147,-32.46574 -45.40829,-53.44057 -80.66368,-53.44057 -27.03073,0 -52.13756,12.22985 -68.8842,33.54573 l -6.82546,8.69251 -10.77818,-2.43984 c -4.91468,-1.11061 -9.79438,-1.67466 -14.51229,-1.67466 -36.14301,0 -65.54362,29.39624 -65.54362,65.54361 0,36.143 29.40061,65.54799 65.54362,65.54799 11.76636,0 23.38407,-3.24001 33.60257,-9.3615 l 9.51017,-5.70172 z m 57.88739,55.90228 c -20.79993,0 -41.0052,-5.20326 -59.0286,-15.14194 -13.16557,6.08214 -27.48548,9.25656 -41.97153,9.25656 -55.41693,0 -100.50167,-45.08474 -100.50167,-100.50167 0,-55.4213 45.08474,-100.50167 100.50167,-100.50167 3.81718,0 7.67808,0.23156 11.55648,0.69522 23.13485,-24.79201 55.18082,-38.82333 89.44365,-38.82333 46.7288,0 88.94955,26.34425 109.61831,67.74735 28.67042,12.36104 47.42403,40.47176 47.42403,72.26851 0,43.42319 -35.32535,78.74417 -78.74854,78.74417 -0.81328,0 -1.63531,-0.0175 -2.46171,-0.0438 -21.56513,17.01773 -48.19796,26.30053 -75.83209,26.30053"
       id="path3389"
       style="fill:#ffffff;fill-opacity:1;fill-rule:nonzero;stroke:none" />
    <path
       d="m 316.59108,248.68141 c 0,-18.51749 -15.72347,-34.42899 -17.42875,-34.95369 -0.014,-0.007 -0.0245,-0.021 -0.0391,-0.021 -0.003,0 -0.0175,0.003 -0.021,0.003 -0.003,0 -0.0175,-0.003 -0.021,-0.003 -0.014,0 -0.0245,0.014 -0.0391,0.021 -1.70527,0.5247 -17.42874,16.4362 -17.42874,34.95369 0,12.7458 9.94741,17.46372 17.44623,17.48996 0.007,0 0.014,0.003 0.021,0.003 l 0.021,0 0.021,0 c 0.007,0 0.014,-0.003 0.021,-0.003 7.49881,-0.0245 17.44623,-4.74416 17.44623,-17.48996"
       id="path3393"
       style="fill:#ffffff;fill-opacity:1;fill-rule:nonzero;stroke:none" />
    <path
       d="m 172.29234,358.00239 c -18.51749,0 -34.42897,15.72347 -34.95367,17.42437 -0.007,0.014 -0.021,0.0245 -0.021,0.0395 0,0.007 0.004,0.0175 0.004,0.0245 0,0.003 -0.004,0.0175 -0.004,0.0175 0,0.0175 0.014,0.0315 0.021,0.0438 0.5247,1.7009 16.43618,17.42874 34.95367,17.42874 12.74581,0 17.46373,-9.94741 17.48996,-17.44623 0,-0.007 0.003,-0.0175 0.003,-0.0245 l 0,-0.0175 0,-0.0245 c 0,-0.007 -0.003,-0.014 -0.003,-0.021 -0.028,-7.49882 -4.74415,-17.44186 -17.48996,-17.44186"
       id="path3397"
       style="fill:#ffffff;fill-opacity:1;fill-rule:nonzero;stroke:none" />
    <path
       d="m 401.13487,298.18806 c 13.09561,-13.09123 13.22679,-35.46088 12.39165,-37.03936 -0.003,-0.014 -0.003,-0.035 -0.014,-0.0395 0,-0.003 -0.014,-0.007 -0.0175,-0.014 -0.003,-0.003 -0.007,-0.0175 -0.014,-0.0175 -0.007,-0.014 -0.0245,-0.014 -0.0438,-0.014 -1.57409,-0.83953 -23.94375,-0.70398 -37.03936,12.39163 -9.0117,9.0117 -5.31694,19.37887 -0.0315,24.7002 0.003,0.003 0.007,0.014 0.014,0.021 0.003,0.003 0.007,0.007 0.0175,0.014 0.003,0.007 0.007,0.014 0.014,0.0175 0.007,0.003 0.014,0.003 0.021,0.014 5.31695,5.28197 15.68849,8.98109 24.70019,-0.035"
       id="path3401"
       style="fill:#ffffff;fill-opacity:1;fill-rule:nonzero;stroke:none" />
    <path
       d="M 221.79897,273.45593 C 208.70336,260.3647 186.33808,260.22915 184.7596,261.0643 c -0.014,0 -0.0315,0 -0.0395,0.007 -0.003,0.007 -0.007,0.0175 -0.0175,0.021 0,0.003 -0.014,0.014 -0.014,0.014 -0.014,0.007 -0.014,0.0315 -0.0175,0.0438 -0.83077,1.5741 -0.69961,23.94375 12.39163,37.03936 9.01171,9.01607 19.38325,5.31257 24.70456,0.0315 0.007,-0.007 0.0175,-0.007 0.021,-0.0175 0.003,0 0.007,-0.0105 0.014,-0.0105 0.003,-0.007 0.007,-0.014 0.0175,-0.021 0.003,-0.003 0.003,-0.014 0.014,-0.0175 5.28197,-5.31695 8.98109,-15.68412 -0.035,-24.7002"
       id="path3405"
       style="fill:#ffffff;fill-opacity:1;fill-rule:nonzero;stroke:none" />
    <path
       d="m 304.60301,385.14681 c 35.81943,-22.86375 55.1677,-32.42201 73.60211,-35.0149 -10.72571,-33.47578 -42.07209,-57.72124 -79.10708,-57.72124 -45.88053,0 -83.07293,37.1924 -83.07293,83.0773 0,13.03877 3.08698,25.32546 8.43454,36.30916 10.4896,-11.92815 33.09973,-27.1794 80.14336,-26.65032"
       id="path3409"
       style="fill:#ffffff;fill-opacity:1;fill-rule:nonzero;stroke:none" />
    <path
       d="m 283.71605,677.86008 c -3.62043,0 -6.55875,-2.93832 -6.55875,-6.55874 l 0,-30.60742 c 0,-3.62043 2.93832,-6.55874 6.55875,-6.55874 3.62041,0 6.55873,2.93831 6.55873,6.55874 l 0,30.60742 c 0,3.62042 -2.93832,6.55874 -6.55873,6.55874"
       id="path3413"
       style="fill:#ffffff;fill-opacity:1;fill-rule:nonzero;stroke:none" />
    <path
       d="m 265.44911,668.0049 c -1.98949,-3.02139 -1.14996,-7.09217 1.8758,-9.08166 l 25.57906,-16.81222 c 3.02577,-1.98948 7.09218,-1.14559 9.07728,1.88017 1.99386,3.02577 1.14997,7.09218 -1.87579,9.08166 l -25.57469,16.81222 c -3.02576,1.98948 -7.09655,1.14123 -9.08166,-1.88017"
       id="path3417"
       style="fill:#ffffff;fill-opacity:1;fill-rule:nonzero;stroke:none" />
    <path
       d="m 265.44911,643.98595 c -1.98949,3.02575 -1.14996,7.09217 1.8758,9.08165 l 25.57906,16.8166 c 3.02577,1.98949 7.09218,1.14559 9.07728,-1.88017 1.99386,-3.03014 1.14997,-7.09655 -1.87579,-9.08603 l -25.57469,-16.80786 c -3.02576,-1.98948 -7.09655,-1.14559 -9.08166,1.87581"
       id="path3421"
       style="fill:#ffffff;fill-opacity:1;fill-rule:nonzero;stroke:none" />
    <path
       d="m 438.29887,677.86008 c -3.62042,0 -6.55874,-2.93832 -6.55874,-6.55874 l 0,-30.60742 c 0,-3.62043 2.93832,-6.55874 6.55874,-6.55874 3.62042,0 6.55873,2.93831 6.55873,6.55874 l 0,30.60742 c 0,3.62042 -2.93831,6.55874 -6.55873,6.55874"
       id="path3425"
       style="fill:#ffffff;fill-opacity:1;fill-rule:nonzero;stroke:none" />
    <path
       d="m 420.0319,668.0049 c -1.98948,-3.02139 -1.14997,-7.09217 1.8758,-9.08166 l 25.57906,-16.81222 c 3.02576,-1.98948 7.09218,-1.14559 9.07729,1.88017 1.99386,3.02577 1.14996,7.09218 -1.8758,9.08166 l -25.57469,16.81222 c -3.02576,1.98948 -7.09655,1.14123 -9.08166,-1.88017"
       id="path3429"
       style="fill:#ffffff;fill-opacity:1;fill-rule:nonzero;stroke:none" />
    <path
       d="m 420.0319,643.98595 c -1.98948,3.02575 -1.14997,7.09217 1.8758,9.08165 l 25.57906,16.8166 c 3.02576,1.98949 7.09218,1.14559 9.07729,-1.88017 1.99386,-3.03014 1.14996,-7.09655 -1.8758,-9.08603 l -25.57469,-16.80786 c -3.02576,-1.98948 -7.09655,-1.14559 -9.08166,1.87581"
       id="path3433"
       style="fill:#ffffff;fill-opacity:1;fill-rule:nonzero;stroke:none" />
    <path
       d="m 359.59405,712.30609 c -3.62042,0 -6.55873,-2.93831 -6.55873,-6.55873 l 0,-30.60743 c 0,-3.62042 2.93831,-6.55873 6.55873,-6.55873 3.62043,0 6.55874,2.93831 6.55874,6.55873 l 0,30.60743 c 0,3.62042 -2.93831,6.55873 -6.55874,6.55873"
       id="path3437"
       style="fill:#ffffff;fill-opacity:1;fill-rule:nonzero;stroke:none" />
    <path
       d="m 341.32708,702.45095 c -1.98948,-3.02139 -1.14996,-7.09217 1.8758,-9.08165 l 25.57907,-16.81223 c 3.02576,-1.98948 7.09218,-1.14559 9.07729,1.88018 1.99385,3.02576 1.14996,7.09217 -1.8758,9.08165 l -25.57469,16.81223 c -3.02576,1.98948 -7.09655,1.14122 -9.08167,-1.88018"
       id="path3441"
       style="fill:#ffffff;fill-opacity:1;fill-rule:nonzero;stroke:none" />
    <path
       d="m 341.32708,678.43242 c -1.98948,3.02576 -1.14996,7.09217 1.8758,9.08165 l 25.57907,16.8166 c 3.02576,1.98949 7.09218,1.14559 9.07729,-1.88017 1.99385,-3.03013 1.14996,-7.09655 -1.8758,-9.08603 l -25.57469,-16.80785 c -3.02576,-1.98948 -7.09655,-1.14559 -9.08167,1.8758"
       id="path3445"
       style="fill:#ffffff;fill-opacity:1;fill-rule:nonzero;stroke:none" />
    <path
       d="m 283.71605,608.16913 c -3.62043,0 -6.55875,-2.93831 -6.55875,-6.55873 l 0,-30.60743 c 0,-3.62042 2.93832,-6.55873 6.55875,-6.55873 3.62041,0 6.55873,2.93831 6.55873,6.55873 l 0,30.60743 c 0,3.62042 -2.93832,6.55873 -6.55873,6.55873"
       id="path3449"
       style="fill:#ffffff;fill-opacity:1;fill-rule:nonzero;stroke:none" />
    <path
       d="m 265.44911,598.314 c -1.98949,-3.02139 -1.14996,-7.09219 1.8758,-9.08167 l 25.57906,-16.81222 c 3.02577,-1.98948 7.09218,-1.14559 9.07728,1.88017 1.99386,3.02577 1.14997,7.09219 -1.87579,9.08167 l -25.57469,16.81222 c -3.02576,1.98948 -7.09655,1.14122 -9.08166,-1.88017"
       id="path3453"
       style="fill:#ffffff;fill-opacity:1;fill-rule:nonzero;stroke:none" />
    <path
       d="m 265.44911,574.29545 c -1.98949,3.02577 -1.14996,7.09219 1.8758,9.08167 l 25.57906,16.81659 c 3.02577,1.98948 7.09015,1.14423 9.07728,-1.88016 1.99184,-3.03151 1.14997,-7.09655 -1.87579,-9.08605 l -25.57469,-16.80784 c -3.02576,-1.98948 -7.09655,-1.14559 -9.08166,1.87579"
       id="path3457"
       style="fill:#ffffff;fill-opacity:1;fill-rule:nonzero;stroke:none" />
    <path
       d="m 438.29887,608.16913 c -3.62042,0 -6.55874,-2.93831 -6.55874,-6.55873 l 0,-30.60743 c 0,-3.62042 2.93832,-6.55873 6.55874,-6.55873 3.62042,0 6.55873,2.93831 6.55873,6.55873 l 0,30.60743 c 0,3.62042 -2.93831,6.55873 -6.55873,6.55873"
       id="path3461"
       style="fill:#ffffff;fill-opacity:1;fill-rule:nonzero;stroke:none" />
    <path
       d="m 420.0319,598.314 c -1.98948,-3.02139 -1.14997,-7.09219 1.8758,-9.08167 l 25.57906,-16.81222 c 3.02576,-1.98948 7.09218,-1.14559 9.07729,1.88017 1.99386,3.02577 1.14996,7.09219 -1.8758,9.08167 l -25.57469,16.81222 c -3.02576,1.98948 -7.09655,1.14122 -9.08166,-1.88017"
       id="path3465"
       style="fill:#ffffff;fill-opacity:1;fill-rule:nonzero;stroke:none" />
    <path
       d="m 420.0319,574.29545 c -1.98948,3.02577 -1.14997,7.09219 1.8758,9.08167 l 25.57906,16.81659 c 3.02576,1.98948 7.09218,1.14559 9.07729,-1.88016 1.99386,-3.03014 1.14996,-7.09655 -1.8758,-9.08605 l -25.57469,-16.80784 c -3.02576,-1.98948 -7.09655,-1.14559 -9.08166,1.87579"
       id="path3469"
       style="fill:#ffffff;fill-opacity:1;fill-rule:nonzero;stroke:none" />
    <path
       d="m 359.59405,642.61561 c -3.62042,0 -6.55873,-2.93832 -6.55873,-6.55873 l 0,-30.60744 c 0,-3.62042 2.93831,-6.55873 6.55873,-6.55873 3.62043,0 6.55874,2.93831 6.55874,6.55873 l 0,30.60744 c 0,3.62041 -2.93831,6.55873 -6.55874,6.55873"
       id="path3473"
       style="fill:#ffffff;fill-opacity:1;fill-rule:nonzero;stroke:none" />
    <path
       d="m 341.32708,632.76047 c -1.98948,-3.02139 -1.14996,-7.09218 1.8758,-9.08166 l 25.57907,-16.81222 c 3.02576,-1.98948 7.09218,-1.14559 9.07729,1.88016 1.99385,3.02576 1.14996,7.09219 -1.8758,9.08167 l -25.57469,16.81222 c -3.02576,1.98948 -7.09655,1.14122 -9.08167,-1.88017"
       id="path3477"
       style="fill:#ffffff;fill-opacity:1;fill-rule:nonzero;stroke:none" />
    <path
       d="m 341.32708,608.74151 c -1.98948,3.02576 -1.14996,7.09218 1.8758,9.08166 l 25.57907,16.81659 c 3.02576,1.98948 7.09218,1.1456 9.07729,-1.88016 1.99385,-3.03014 1.14996,-7.09655 -1.8758,-9.08604 l -25.57469,-16.80785 c -3.02576,-1.98948 -7.09655,-1.14559 -9.08167,1.8758"
       id="path3481"
       style="fill:#ffffff;fill-opacity:1;fill-rule:nonzero;stroke:none" />
  </g>
</svg>
