<?xml version="1.0" encoding="UTF-8" standalone="no"?>
<!-- Created with Inkscape (http://www.inkscape.org/) -->

<svg
   xmlns:dc="http://purl.org/dc/elements/1.1/"
   xmlns:cc="http://creativecommons.org/ns#"
   xmlns:rdf="http://www.w3.org/1999/02/22-rdf-syntax-ns#"
   xmlns:svg="http://www.w3.org/2000/svg"
   xmlns="http://www.w3.org/2000/svg"
   version="1.1"
   width="500"
   height="500"
   id="svg4503">
  <defs
     id="defs4505" />
  <metadata
     id="metadata4508">
    <rdf:RDF>
      <cc:Work
         rdf:about="">
        <dc:format>image/svg+xml</dc:format>
        <dc:type
           rdf:resource="http://purl.org/dc/dcmitype/StillImage" />
        <dc:title></dc:title>
      </cc:Work>
    </rdf:RDF>
  </metadata>
  <g
     transform="translate(-91.628542,-212.24884)"
     id="layer1">
    <path
       d="m 456.96647,604.47596 c -44.20958,0 -78.99395,-19.9212 -106.8945,-35.89468 -25.67501,-14.70034 -42.08767,-23.47909 -55.57408,-18.69247 -10.27395,3.65658 -21.5595,-1.72714 -25.19635,-11.99615 -3.65164,-10.27396 1.72714,-21.55951 12.00109,-25.20621 31.23143,-11.08324 60.28668,5.54654 88.37966,21.63351 39.83747,22.80305 81.02209,46.38577 143.42574,16.85679 9.84957,-4.66819 21.62366,-0.45892 26.28197,9.40051 4.66325,9.85451 0.45893,21.61872 -9.39557,26.28198 -26.86427,12.71166 -51.10823,17.61178 -73.02796,17.61672"
       id="path3833"
       style="fill:#ffffff;fill-opacity:1;fill-rule:nonzero;stroke:none" />
    <path
       d="m 456.98573,535.29458 c -31.82359,0 -57.81935,-15.37145 -82.96141,-30.23956 -22.33425,-13.21007 -43.4299,-25.68488 -66.3119,-25.68488 -10.90065,0 -19.73861,-8.83797 -19.73861,-19.73862 0,-10.90065 8.83796,-19.73861 19.73861,-19.73861 33.67903,0 61.69306,16.56563 86.41075,31.18208 21.51509,12.72154 41.83107,24.74236 62.86256,24.74236 10.90065,0 19.73862,8.83796 19.73862,19.73861 0,10.90066 -8.83797,19.73862 -19.73862,19.73862"
       id="path3837"
       style="fill:#ffffff;fill-opacity:1;fill-rule:nonzero;stroke:none" />
    <path
       d="m 394.46416,666.06538 c -3.8737,0 -7.79674,-1.13497 -11.21646,-3.50854 -5.52682,-3.82436 -10.71807,-7.52535 -15.70207,-11.06349 -35.06566,-24.96442 -54.3799,-38.73705 -96.61561,-32.90428 -10.8217,1.45572 -20.76009,-6.0647 -22.24542,-16.86172 -1.49027,-10.79703 6.06469,-20.76009 16.86172,-22.24542 57.76012,-7.96453 87.38286,13.14098 124.8961,39.84734 4.84584,3.44932 9.90879,7.05162 15.2777,10.77234 8.96627,6.2078 11.1918,18.5099 4.984,27.46136 -3.82436,5.53175 -9.98281,8.50241 -16.23996,8.50241"
       id="path3841"
       style="fill:#ffffff;fill-opacity:1;fill-rule:nonzero;stroke:none" />
    <path
       d="M 487.83719,365.46844 C 464.51108,318.7422 416.86206,289.0109 364.1254,289.0109 c -38.66302,0 -74.8291,15.83531 -100.93836,43.8148 -4.37704,-0.52307 -8.73928,-0.78461 -13.04723,-0.78461 -62.54181,0 -113.41811,50.87629 -113.41811,113.42304 0,62.54182 50.8763,113.42303 113.41811,113.42303 14.58684,0 29.02071,-2.87196 42.51699,-8.3593 l -11.98628,-37.80439 c -9.61271,4.38691 -20.01003,6.71607 -30.53071,6.71607 -40.78985,0 -73.96554,-33.18556 -73.96554,-73.97541 0,-40.7948 33.17569,-73.97048 73.96554,-73.97048 5.32449,0 10.8365,0.63658 16.37812,1.88998 l 12.16393,2.75353 7.70792,-9.81009 c 18.89479,-24.05644 47.22958,-37.85867 77.73562,-37.85867 39.78812,0 75.51995,23.67153 91.0345,60.31135 l 3.55296,8.37904 8.67019,2.74367 c 20.65153,6.51868 34.52778,25.45295 34.52778,47.12102 0,25.24076 -19.02803,46.08474 -43.48418,49.03566 l 0,39.54139 c 46.23278,-3.07923 82.93674,-41.56953 82.93674,-88.57705 0,-35.87988 -21.16967,-67.60477 -53.5262,-81.55504"
       id="path3845"
       style="fill:#ffffff;fill-opacity:1;fill-rule:nonzero;stroke:none" />
  </g>
</svg>
