<?xml version="1.0" encoding="UTF-8" standalone="no"?>
<!-- Created with Inkscape (http://www.inkscape.org/) -->

<svg
   xmlns:dc="http://purl.org/dc/elements/1.1/"
   xmlns:cc="http://creativecommons.org/ns#"
   xmlns:rdf="http://www.w3.org/1999/02/22-rdf-syntax-ns#"
   xmlns:svg="http://www.w3.org/2000/svg"
   xmlns="http://www.w3.org/2000/svg"
   version="1.1"
   width="500"
   height="500"
   id="svg4503">
  <defs
     id="defs4505" />
  <metadata
     id="metadata4508">
    <rdf:RDF>
      <cc:Work
         rdf:about="">
        <dc:format>image/svg+xml</dc:format>
        <dc:type
           rdf:resource="http://purl.org/dc/dcmitype/StillImage" />
        <dc:title></dc:title>
      </cc:Work>
    </rdf:RDF>
  </metadata>
  <g
     transform="translate(-91.628542,-212.24884)"
     id="layer1">
    <path
       d="m 295.22162,476.48924 11.87145,7.9594 c 18.59071,12.45768 40.28739,19.0473 62.75069,19.0473 27.86915,0 54.63347,-10.248 75.36059,-28.8669 l 7.73955,-6.94474 10.31,1.38105 c 2.96505,0.39458 5.36077,0.58062 7.53099,0.58062 31.13296,0 56.45421,-25.32689 56.45421,-56.45421 0,-24.75755 -15.84551,-46.38658 -39.43621,-53.83302 l -9.90978,-3.13415 -4.05297,-9.57156 c -17.72263,-41.85447 -58.53989,-68.89499 -103.99638,-68.89499 -34.84208,0 -67.21517,15.76659 -88.7991,43.24679 l -8.79931,11.20629 -13.89511,-3.14543 c -6.33032,-1.43178 -12.62681,-2.15895 -18.70909,-2.15895 -46.59515,0 -84.49811,37.89731 -84.49811,84.4981 0,46.59515 37.90296,84.50374 84.49811,84.50374 15.16343,0 30.14649,-4.17699 43.32007,-12.06874 l 12.2604,-7.3506 z m 74.62214,72.0686 c -26.8094,0 -52.85782,-6.70799 -76.09902,-19.52082 -16.96163,7.84102 -35.42832,11.93346 -54.10359,11.93346 -71.4429,0 -129.56564,-58.12274 -129.56564,-129.56564 0,-71.44854 58.12274,-129.56563 129.56564,-129.56563 4.92108,0 9.89852,0.29853 14.8985,0.89627 29.82518,-31.96159 71.13849,-50.05061 115.30411,-50.05061 60.24788,0 114.67841,33.96272 141.32435,87.33914 36.95594,15.93569 61.13851,52.17573 61.13851,93.16775 0,55.98069 -45.54102,101.5161 -101.52173,101.5161 -1.04847,0 -2.10822,-0.0226 -3.1736,-0.0565 -27.80151,21.93905 -62.13627,33.90633 -97.76753,33.90633"
       id="path3661"
       style="fill:#ffffff;fill-opacity:1;fill-rule:nonzero;stroke:none" />
    <path
       d="m 369.0636,592.25614 c 0,12.45767 -10.0958,22.54785 -22.54785,22.54785 -12.45206,0 -22.54786,-10.09018 -22.54786,-22.54785 0,-12.45206 10.0958,-22.54787 22.54786,-22.54787 12.45205,0 22.54785,10.09581 22.54785,22.54787"
       id="path3665"
       style="fill:#ffffff;fill-opacity:1;fill-rule:nonzero;stroke:none" />
    <path
       d="m 271.24252,547.1604 c 0,12.4577 -10.09581,22.54787 -22.54786,22.54787 -12.45205,0 -22.54786,-10.09017 -22.54786,-22.54787 0,-12.45205 10.09581,-22.54785 22.54786,-22.54785 12.45205,0 22.54786,10.0958 22.54786,22.54785"
       id="path3669"
       style="fill:#ffffff;fill-opacity:1;fill-rule:nonzero;stroke:none" />
    <path
       d="m 470.52898,547.1604 c 0,12.4577 -10.09581,22.54787 -22.54787,22.54787 -12.45205,0 -22.54785,-10.09017 -22.54785,-22.54787 0,-12.45205 10.0958,-22.54785 22.54785,-22.54785 12.45206,0 22.54787,10.0958 22.54787,22.54785"
       id="path3673"
       style="fill:#ffffff;fill-opacity:1;fill-rule:nonzero;stroke:none" />
    <path
       d="m 369.0636,681.75928 c 0,12.45768 -10.0958,22.54784 -22.54785,22.54784 -12.45206,0 -22.54786,-10.09016 -22.54786,-22.54784 0,-12.45205 10.0958,-22.54787 22.54786,-22.54787 12.45205,0 22.54785,10.09582 22.54785,22.54787"
       id="path3677"
       style="fill:#ffffff;fill-opacity:1;fill-rule:nonzero;stroke:none" />
    <path
       d="m 271.24252,637.35185 c 0,12.45768 -10.09581,22.54785 -22.54786,22.54785 -12.45205,0 -22.54786,-10.09017 -22.54786,-22.54785 0,-12.45206 10.09581,-22.54786 22.54786,-22.54786 12.45205,0 22.54786,10.0958 22.54786,22.54786"
       id="path3681"
       style="fill:#ffffff;fill-opacity:1;fill-rule:nonzero;stroke:none" />
    <path
       d="m 470.52898,637.35185 c 0,12.45768 -10.09581,22.54785 -22.54787,22.54785 -12.45205,0 -22.54785,-10.09017 -22.54785,-22.54785 0,-12.45206 10.0958,-22.54786 22.54785,-22.54786 12.45206,0 22.54787,10.0958 22.54787,22.54786"
       id="path3685"
       style="fill:#ffffff;fill-opacity:1;fill-rule:nonzero;stroke:none" />
  </g>
</svg>
