<?xml version="1.0" encoding="UTF-8" standalone="no"?>
<!-- Created with Inkscape (http://www.inkscape.org/) -->

<svg
   xmlns:dc="http://purl.org/dc/elements/1.1/"
   xmlns:cc="http://creativecommons.org/ns#"
   xmlns:rdf="http://www.w3.org/1999/02/22-rdf-syntax-ns#"
   xmlns:svg="http://www.w3.org/2000/svg"
   xmlns="http://www.w3.org/2000/svg"
   version="1.1"
   width="500"
   height="500"
   id="svg4503">
  <defs
     id="defs4505" />
  <metadata
     id="metadata4508">
    <rdf:RDF>
      <cc:Work
         rdf:about="">
        <dc:format>image/svg+xml</dc:format>
        <dc:type
           rdf:resource="http://purl.org/dc/dcmitype/StillImage" />
        <dc:title></dc:title>
      </cc:Work>
    </rdf:RDF>
  </metadata>
  <g
     transform="translate(-91.628542,-212.24884)"
     id="layer1">
    <path
       d="m 292.85562,485.37217 12.39979,8.31364 c 19.41811,13.01213 42.08041,19.89501 65.54935,19.89501 29.1036,0 57.05318,-10.70409 78.71455,-30.15163 l 8.07812,-7.25383 10.76886,1.44253 c 3.09701,0.41214 5.59934,0.60644 7.86616,0.60644 32.51266,0 58.96674,-26.45407 58.96674,-58.96673 0,-25.8594 -16.55073,-48.45105 -41.19135,-56.22889 l -10.35082,-3.27364 -4.23336,-9.99756 c -18.51726,-43.71722 -61.14524,-71.9612 -108.6189,-71.9612 -36.39864,0 -70.20663,16.4683 -92.75706,45.17152 l -9.19092,11.70503 -14.51353,-3.28541 c -6.61794,-1.49551 -13.18877,-2.25505 -19.54175,-2.25505 -48.6689,0 -88.25875,39.58396 -88.25875,88.25875 0,48.6689 39.58985,88.26464 88.25875,88.26464 15.84418,0 31.48818,-4.36289 45.24806,-12.60587 l 12.80606,-7.67775 z m 77.94914,75.27606 c -28.00847,0 -55.21618,-7.00653 -79.48587,-20.3896 -17.72829,8.18999 -37.01097,12.46456 -56.51739,12.46456 -74.62251,0 -135.332052,-60.70953 -135.332052,-135.33204 0,-74.62839 60.709542,-135.33204 135.332052,-135.33204 5.14009,0 10.33905,0.31182 15.56157,0.93617 31.15257,-33.38407 74.30456,-52.27815 120.44169,-52.27815 62.92336,0 119.77636,35.47425 147.60819,91.22622 38.60658,16.64493 63.85953,54.49786 63.85953,97.31425 0,58.47215 -47.56787,106.03414 -106.04003,106.03414 -1.09514,0 -2.20205,-0.0236 -3.31485,-0.0589 -29.03884,22.91548 -64.90168,35.41537 -102.11284,35.41537"
       id="path3745"
       style="fill:#ffffff;fill-opacity:1;fill-rule:nonzero;stroke:none" />
    <path
       d="m 290.74301,539.42671 130.5099,158.47714 -50.05254,-158.47714 -80.45736,0 z"
       id="path3749"
       style="fill:#ffffff;fill-opacity:1;fill-rule:nonzero;stroke:none" />
    <path
       d="m 463.93685,580.6416 -130.5099,-158.47715 50.05254,158.47715 80.45736,0 z"
       id="path3753"
       style="fill:#ffffff;fill-opacity:1;fill-rule:nonzero;stroke:none" />
  </g>
</svg>
