<?xml version="1.0" encoding="UTF-8" standalone="no"?>
<!-- Created with Inkscape (http://www.inkscape.org/) -->

<svg
   xmlns:dc="http://purl.org/dc/elements/1.1/"
   xmlns:cc="http://creativecommons.org/ns#"
   xmlns:rdf="http://www.w3.org/1999/02/22-rdf-syntax-ns#"
   xmlns:svg="http://www.w3.org/2000/svg"
   xmlns="http://www.w3.org/2000/svg"
   version="1.1"
   width="500"
   height="500"
   id="svg4503">
  <defs
     id="defs4505" />
  <metadata
     id="metadata4508">
    <rdf:RDF>
      <cc:Work
         rdf:about="">
        <dc:format>image/svg+xml</dc:format>
        <dc:type
           rdf:resource="http://purl.org/dc/dcmitype/StillImage" />
        <dc:title></dc:title>
      </cc:Work>
    </rdf:RDF>
  </metadata>
  <g
     transform="translate(-91.628542,-212.24884)"
     id="layer1">
    <path
       d="m 293.90293,478.33675 12.27264,8.22839 c 19.219,12.87871 41.64892,19.69101 64.87722,19.69101 28.80517,0 56.46816,-10.59433 77.90743,-29.84246 l 7.99528,-7.17945 10.65844,1.42773 c 3.06526,0.40793 5.54193,0.60023 7.7855,0.60023 32.17929,0 58.3621,-26.18282 58.3621,-58.3621 0,-25.59424 -16.38101,-47.95425 -40.76897,-55.65233 l -10.24469,-3.24007 -4.18994,-9.89505 c -18.3274,-43.26895 -60.51827,-71.22331 -107.50515,-71.22331 -36.02542,0 -69.48675,16.29942 -91.80595,44.70833 l -9.09668,11.58502 -14.36471,-3.25173 c -6.55007,-1.48018 -13.05353,-2.23193 -19.34137,-2.23193 -48.16985,0 -87.35376,39.17807 -87.35376,87.35376 0,48.16986 39.18391,87.35959 87.35376,87.35959 15.68172,0 31.1653,-4.31816 44.7841,-12.47661 l 12.67475,-7.59902 z m 77.14986,74.50419 c -27.72127,0 -54.65,-6.93469 -78.67083,-20.18053 -17.54651,8.10601 -36.63148,12.33676 -55.93788,12.33676 -73.85734,0 -133.94432,-60.08704 -133.94432,-133.94438 0,-73.86317 60.08698,-133.94437 133.94432,-133.94437 5.08738,0 10.23304,0.30863 15.402,0.92657 30.83314,-33.04175 73.54266,-51.7421 119.20671,-51.7421 62.27815,0 118.54819,35.1105 146.09464,90.29081 38.21071,16.47425 63.20473,53.93904 63.20473,96.3164 0,57.8726 -47.08012,104.94689 -104.95272,104.94689 -1.0839,0 -2.17947,-0.0233 -3.28086,-0.0583 -28.74108,22.6805 -64.23619,35.05222 -101.06579,35.05222"
       id="path3849"
       style="fill:#ffffff;fill-opacity:1;fill-rule:nonzero;stroke:none" />
    <path
       d="m 291.81147,531.83697 129.17168,156.85216 -49.53932,-156.85216 -79.63236,0 z"
       id="path3853"
       style="fill:#ffffff;fill-opacity:1;fill-rule:nonzero;stroke:none" />
    <path
       d="M 463.22936,572.62925 334.05768,415.7771 l 49.53931,156.85215 79.63237,0 z"
       id="path3857"
       style="fill:#ffffff;fill-opacity:1;fill-rule:nonzero;stroke:none" />
    <path
       d="m 445.74695,664.0588 c 0,12.87287 10.437,23.30986 23.30988,23.30986 12.87288,0 23.30987,-10.43699 23.30987,-23.30986 0,-12.87289 -10.43699,-23.30988 -23.30987,-23.30988 -12.87288,0 -23.30988,10.43699 -23.30988,23.30988"
       id="path3861"
       style="fill:#ffffff;fill-opacity:1;fill-rule:nonzero;stroke:none" />
    <path
       d="m 422.43707,618.14472 c 0,12.87288 10.437,23.30988 23.30988,23.30988 12.87288,0 23.30988,-10.437 23.30988,-23.30988 0,-12.87288 -10.437,-23.30987 -23.30988,-23.30987 -12.87288,0 -23.30988,10.43699 -23.30988,23.30987"
       id="path3865"
       style="fill:#ffffff;fill-opacity:1;fill-rule:nonzero;stroke:none" />
    <path
       d="m 448.27085,674.61001 -23.30988,-45.91463 41.57317,-21.10126 23.30987,45.91462 -41.57316,21.10127 z"
       id="path3869"
       style="fill:#ffffff;fill-opacity:1;fill-rule:nonzero;stroke:none" />
    <path
       d="m 277.52135,629.44707 c 0,12.87289 10.437,23.30988 23.30988,23.30988 12.87287,0 23.30987,-10.43699 23.30987,-23.30988 0,-12.87288 -10.437,-23.30987 -23.30987,-23.30987 -12.87288,0 -23.30988,10.43699 -23.30988,23.30987"
       id="path3873"
       style="fill:#ffffff;fill-opacity:1;fill-rule:nonzero;stroke:none" />
    <path
       d="m 254.21147,583.53305 c 0,12.87288 10.437,23.30988 23.30988,23.30988 12.87288,0 23.30988,-10.437 23.30988,-23.30988 0,-12.87287 -10.437,-23.30988 -23.30988,-23.30988 -12.87288,0 -23.30988,10.43701 -23.30988,23.30988"
       id="path3877"
       style="fill:#ffffff;fill-opacity:1;fill-rule:nonzero;stroke:none" />
    <path
       d="m 280.0452,639.99773 -23.30988,-45.91463 41.57317,-21.10126 23.30988,45.91463 -41.57317,21.10126 z"
       id="path3881"
       style="fill:#ffffff;fill-opacity:1;fill-rule:nonzero;stroke:none" />
    <path
       d="m 507.28269,617.79214 c 0,12.87288 10.437,23.30987 23.30987,23.30987 12.87289,0 23.30988,-10.43699 23.30988,-23.30987 0,-12.87289 -10.43699,-23.30988 -23.30988,-23.30988 -12.87287,0 -23.30987,10.43699 -23.30987,23.30988"
       id="path3885"
       style="fill:#ffffff;fill-opacity:1;fill-rule:nonzero;stroke:none" />
    <path
       d="m 483.97282,571.87811 c 0,12.87288 10.437,23.30988 23.30987,23.30988 12.87288,0 23.30987,-10.437 23.30987,-23.30988 0,-12.87287 -10.43699,-23.30987 -23.30987,-23.30987 -12.87287,0 -23.30987,10.437 -23.30987,23.30987"
       id="path3889"
       style="fill:#ffffff;fill-opacity:1;fill-rule:nonzero;stroke:none" />
    <path
       d="m 509.8066,628.34279 -23.30988,-45.91463 41.57316,-21.10126 23.30987,45.91463 -41.57315,21.10126 z"
       id="path3893"
       style="fill:#ffffff;fill-opacity:1;fill-rule:nonzero;stroke:none" />
  </g>
</svg>
