<?xml version="1.0" encoding="UTF-8" standalone="no"?>
<!-- Created with Inkscape (http://www.inkscape.org/) -->

<svg
   xmlns:dc="http://purl.org/dc/elements/1.1/"
   xmlns:cc="http://creativecommons.org/ns#"
   xmlns:rdf="http://www.w3.org/1999/02/22-rdf-syntax-ns#"
   xmlns:svg="http://www.w3.org/2000/svg"
   xmlns="http://www.w3.org/2000/svg"
   version="1.1"
   width="500"
   height="500"
   id="svg4503">
  <defs
     id="defs4505" />
  <metadata
     id="metadata4508">
    <rdf:RDF>
      <cc:Work
         rdf:about="">
        <dc:format>image/svg+xml</dc:format>
        <dc:type
           rdf:resource="http://purl.org/dc/dcmitype/StillImage" />
        <dc:title></dc:title>
      </cc:Work>
    </rdf:RDF>
  </metadata>
  <g
     transform="translate(-91.628542,-212.24884)"
     id="layer1">
    <path
       d="m 294.65967,464.97772 11.73826,7.8701 c 18.38215,12.31793 39.83542,18.83362 62.04671,18.83362 27.5565,0 54.02054,-10.13303 74.51513,-28.54305 l 7.65273,-6.86683 10.19434,1.36557 c 2.93178,0.39016 5.30061,0.57409 7.4465,0.57409 30.78368,0 55.82085,-25.04275 55.82085,-55.82086 0,-24.4798 -15.66774,-45.86618 -38.99378,-53.22907 l -9.79861,-3.09899 -4.0075,-9.46419 c -17.5238,-41.38491 -57.88314,-68.12206 -102.82966,-68.12206 -34.45119,0 -66.4611,15.5897 -87.80289,42.76161 l -8.70058,11.08057 -13.73924,-3.11014 c -6.25929,-1.41573 -12.48514,-2.13474 -18.49919,-2.13474 -46.07241,0 -83.55014,37.47216 -83.55014,83.55014 0,46.07241 37.47773,83.55572 83.55014,83.55572 14.99332,0 29.80828,-4.13014 42.83408,-11.93335 l 12.12285,-7.26814 z m 73.78497,71.26008 c -26.50863,0 -52.26482,-6.63274 -75.24529,-19.30181 -16.77134,7.75305 -35.03086,11.79957 -53.49661,11.79957 -70.64139,0 -128.11207,-57.47068 -128.11207,-128.11207 0,-70.64696 57.47068,-128.11207 128.11207,-128.11207 4.86586,0 9.78746,0.29519 14.73136,0.88622 29.49057,-31.60302 70.34041,-49.4891 114.01054,-49.4891 59.57198,0 113.39186,33.58169 139.73886,86.3593 36.54134,15.75692 60.45262,51.5904 60.45262,92.12252 0,55.35267 -45.03012,100.37722 -100.38278,100.37722 -1.03672,0 -2.08458,-0.0223 -3.13801,-0.0557 -27.48961,21.69294 -61.43917,33.52596 -96.67069,33.52596"
       id="path3717"
       style="fill:#ffffff;fill-opacity:1;fill-rule:nonzero;stroke:none" />
    <path
       d="m 430.00198,678.65151 c 0,12.31236 9.98254,22.2949 22.2949,22.2949 12.31235,0 22.2949,-9.98254 22.2949,-22.2949 0,-12.31236 -9.98255,-22.2949 -22.2949,-22.2949 -12.31236,0 -22.2949,9.98254 -22.2949,22.2949"
       id="path3721"
       style="fill:#ffffff;fill-opacity:1;fill-rule:nonzero;stroke:none" />
    <path
       d="m 318.52747,634.06171 c 0,12.31236 9.98255,22.2949 22.29491,22.2949 12.31235,0 22.2949,-9.98254 22.2949,-22.2949 0,-12.31236 -9.98255,-22.2949 -22.2949,-22.2949 -12.31236,0 -22.29491,9.98254 -22.29491,22.2949"
       id="path3725"
       style="fill:#ffffff;fill-opacity:1;fill-rule:nonzero;stroke:none" />
    <path
       d="m 496.88668,634.06171 c 0,12.31236 9.98254,22.2949 22.2949,22.2949 12.31236,0 22.2949,-9.98254 22.2949,-22.2949 0,-12.31236 -9.98254,-22.2949 -22.2949,-22.2949 -12.31236,0 -22.2949,9.98254 -22.2949,22.2949"
       id="path3729"
       style="fill:#ffffff;fill-opacity:1;fill-rule:nonzero;stroke:none" />
    <path
       d="m 432.65284,689.19477 -89.1796,-166.16947 39.28919,-21.0854 89.1796,166.16947 -39.28919,21.0854 z"
       id="path3733"
       style="fill:#ffffff;fill-opacity:1;fill-rule:nonzero;stroke:none" />
    <path
       d="m 499.53754,644.60497 -73.76268,-137.44806 39.28362,-21.0854 73.76825,137.44806 -39.28919,21.0854 z"
       id="path3737"
       style="fill:#ffffff;fill-opacity:1;fill-rule:nonzero;stroke:none" />
    <path
       d="m 321.17834,644.60497 -73.76268,-137.44806 39.28362,-21.0854 73.76825,137.44806 -39.28919,21.0854 z"
       id="path3741"
       style="fill:#ffffff;fill-opacity:1;fill-rule:nonzero;stroke:none" />
  </g>
</svg>
