<?xml version="1.0" encoding="UTF-8" standalone="no"?>
<!-- Created with Inkscape (http://www.inkscape.org/) -->

<svg
   xmlns:dc="http://purl.org/dc/elements/1.1/"
   xmlns:cc="http://creativecommons.org/ns#"
   xmlns:rdf="http://www.w3.org/1999/02/22-rdf-syntax-ns#"
   xmlns:svg="http://www.w3.org/2000/svg"
   xmlns="http://www.w3.org/2000/svg"
   version="1.1"
   width="500"
   height="500"
   id="svg4503">
  <defs
     id="defs4505" />
  <metadata
     id="metadata4508">
    <rdf:RDF>
      <cc:Work
         rdf:about="">
        <dc:format>image/svg+xml</dc:format>
        <dc:type
           rdf:resource="http://purl.org/dc/dcmitype/StillImage" />
        <dc:title></dc:title>
      </cc:Work>
    </rdf:RDF>
  </metadata>
  <g
     transform="translate(-91.628542,-212.24884)"
     id="layer1">
    <path
       d="m 364.85775,280.26823 c -15.88578,-34.46496 -50.64648,-58.43622 -91.08973,-58.43622 -8.01682,0 -15.76959,1.04039 -23.24246,2.81487 6.32685,9.85995 10.0448,21.56304 10.0448,34.15336 0,35.00364 -28.37576,63.37412 -63.3794,63.37412 -8.32313,0 -16.25018,-1.64773 -23.53292,-4.56822 -0.0634,1.52626 -0.22688,3.02612 -0.22688,4.56822 0,10.01839 1.5157,19.67238 4.24607,28.80354 4.2091,14.06377 11.45487,26.78084 20.92402,37.50163 14.0004,-12.50583 32.41058,-20.18466 52.62164,-20.18466 5.69839,0 11.59746,0.68128 17.53351,2.02269 l 13.0181,2.9469 8.24391,-10.49898 c 20.22691,-25.74573 50.54614,-40.51718 83.19965,-40.51718 0.29575,0 0.5915,0.0296 0.89252,0.0296 0,-0.038 0.004,-0.0739 0.004,-0.10562 0,-14.97742 -3.37467,-29.14153 -9.2579,-41.90614"
       id="path3641"
       style="fill:#ffffff;fill-opacity:1;fill-rule:nonzero;stroke:none" />
    <path
       d="m 472.50291,638.26384 c -47.30878,0 -84.54107,-21.32011 -114.40084,-38.41528 -27.47796,-15.73262 -45.04315,-25.12784 -59.47133,-20.0051 -10.99541,3.91336 -23.07346,-1.84841 -26.97096,-12.83854 -3.90279,-10.99541 1.84841,-23.07346 12.84382,-26.97625 33.42984,-11.86152 64.52541,5.93605 94.59115,23.15268 42.63493,24.40432 86.71163,49.64306 153.49211,18.0405 10.54651,-4.99599 23.14211,-0.49115 28.13282,10.06064 4.99071,10.54651 0.48587,23.13684 -10.06064,28.12755 -28.74544,13.60431 -54.69186,18.84852 -78.15613,18.8538"
       id="path3645"
       style="fill:#ffffff;fill-opacity:1;fill-rule:nonzero;stroke:none" />
    <path
       d="m 472.52877,564.22436 c -34.06359,0 -61.88483,-16.45086 -88.78714,-32.36305 -23.9026,-14.1377 -46.48491,-27.48852 -70.96845,-27.48852 -11.66611,0 -21.1247,-9.45859 -21.1247,-21.1247 0,-11.66612 9.45859,-21.12471 21.1247,-21.12471 36.04403,0 66.01999,17.72891 92.4734,33.37175 23.02593,13.61488 44.77382,26.47982 67.28219,26.47982 11.66612,0 21.12471,9.45859 21.12471,21.12471 0,11.66612 -9.45859,21.1247 -21.12471,21.1247"
       id="path3649"
       style="fill:#ffffff;fill-opacity:1;fill-rule:nonzero;stroke:none" />
    <path
       d="m 405.61415,704.18082 c -4.151,0 -8.34426,-1.21467 -12.00939,-3.7602 -5.90436,-4.08763 -11.47072,-8.04851 -16.79942,-11.8404 -37.52804,-26.71747 -58.19857,-41.45723 -103.40016,-35.2096 -11.58162,1.55795 -22.21791,-6.49585 -23.80754,-18.04578 -1.58963,-11.56049 6.49057,-22.21791 18.04578,-23.81282 61.81617,-8.51854 93.51907,14.06377 133.66657,42.6455 5.18612,3.69682 10.60461,7.55208 16.35053,11.53408 9.59061,6.64372 11.9777,19.80442 5.33927,29.38975 -4.10348,5.9202 -10.68911,9.09947 -17.38564,9.09947"
       id="path3653"
       style="fill:#ffffff;fill-opacity:1;fill-rule:nonzero;stroke:none" />
    <path
       d="m 505.54402,382.47272 c -24.96412,-50.00746 -75.95388,-81.82655 -132.39909,-81.82655 -41.37802,0 -80.08376,16.9473 -108.02646,46.89157 -4.68441,-0.55981 -9.35297,-0.83971 -13.96343,-0.83971 -66.93363,0 -121.38256,54.44893 -121.38256,121.38784 0,66.93363 54.44893,121.38784 121.38256,121.38784 15.61644,0 31.0586,-3.07365 45.50261,-8.94631 l -12.82797,-40.4591 c -10.28774,4.69497 -21.41517,7.18769 -32.67464,7.18769 -43.65421,0 -79.16484,-35.51592 -79.16484,-79.17012 0,-43.65948 35.51063,-79.16483 79.16484,-79.16483 5.69839,0 11.59746,0.68127 17.52822,2.02269 l 13.0181,2.94689 8.2492,-10.49897 c 20.22162,-25.74574 50.54614,-40.51719 83.19437,-40.51719 42.58213,0 80.82312,25.3338 97.42714,64.54654 l 3.79717,8.96744 9.28431,2.93633 c 22.10172,6.97643 36.95239,27.24031 36.95239,50.42995 0,27.01322 -20.36422,49.32091 -46.53773,52.47905 l 0,42.31807 c 49.47934,-3.29546 88.76073,-44.48863 88.76073,-94.79712 0,-38.39943 -22.65624,-72.35211 -57.28492,-87.282"
       id="path3657"
       style="fill:#ffffff;fill-opacity:1;fill-rule:nonzero;stroke:none" />
  </g>
</svg>
