<?xml version="1.0" encoding="UTF-8" standalone="no"?>
<!-- Created with Inkscape (http://www.inkscape.org/) -->

<svg
   xmlns:dc="http://purl.org/dc/elements/1.1/"
   xmlns:cc="http://creativecommons.org/ns#"
   xmlns:rdf="http://www.w3.org/1999/02/22-rdf-syntax-ns#"
   xmlns:svg="http://www.w3.org/2000/svg"
   xmlns="http://www.w3.org/2000/svg"
   version="1.1"
   width="500"
   height="500"
   id="svg4503">
  <defs
     id="defs4505" />
  <metadata
     id="metadata4508">
    <rdf:RDF>
      <cc:Work
         rdf:about="">
        <dc:format>image/svg+xml</dc:format>
        <dc:type
           rdf:resource="http://purl.org/dc/dcmitype/StillImage" />
        <dc:title></dc:title>
      </cc:Work>
    </rdf:RDF>
  </metadata>
  <g
     transform="translate(-91.628542,-212.24884)"
     id="layer1">
    <path
       d="m 357.84589,284.95394 c -14.28975,-31.00225 -45.55804,-52.56511 -81.93793,-52.56511 -7.21137,0 -14.18522,0.93587 -20.90728,2.53206 5.69119,8.86933 9.0356,19.3966 9.0356,30.72197 0,31.48681 -25.52485,57.0069 -57.01166,57.0069 -7.4869,0 -14.61752,-1.48218 -21.16856,-4.10926 -0.057,1.37292 -0.20408,2.72209 -0.20408,4.10926 0,9.01184 1.36341,17.69589 3.81945,25.90963 3.78621,12.65078 10.304,24.09016 18.82179,33.73382 12.59377,-11.24935 29.15427,-18.15669 47.33472,-18.15669 5.12588,0 10.43227,0.61283 15.77191,1.81947 l 11.71017,2.65082 7.41565,-9.44414 c 18.1947,-23.15905 45.46774,-36.44641 74.84056,-36.44641 0.26603,0 0.53207,0.0266 0.80285,0.0266 0,-0.0342 0.004,-0.0664 0.004,-0.0951 0,-13.47263 -3.03561,-26.21367 -8.32775,-37.69581"
       id="path3529"
       style="fill:#ffffff;fill-opacity:1;fill-rule:nonzero;stroke:none" />
    <path
       d="m 302.47176,509.20481 10.00471,6.70781 c 15.6674,10.49879 33.95236,16.0522 52.88817,16.0522 23.48208,0 46.03306,-8.63655 63.51042,-24.32769 l 6.51779,-5.85271 8.68881,1.16389 c 2.4988,0.33254 4.51779,0.48931 6.34677,0.48931 26.23267,0 47.577,-21.34433 47.577,-47.577 0,-20.86453 -13.35387,-39.09249 -33.23503,-45.36799 l -8.35151,-2.64133 -3.41565,-8.06647 c -14.94057,-35.27301 -49.33473,-58.06152 -87.6386,-58.06152 -29.36807,0 -56.64587,13.28736 -74.84056,36.44641 l -7.41565,9.44414 -11.71017,-2.65082 c -5.33964,-1.20665 -10.64129,-1.81947 -15.76716,-1.81947 -39.26825,0 -71.21112,31.93811 -71.21112,71.21112 0,39.26824 31.94287,71.21585 71.21112,71.21585 12.7838,0 25.40608,-3.52017 36.50817,-10.17097 l 10.33249,-6.19476 z m 62.89288,60.7361 c -22.5985,0 -44.5509,-5.65318 -64.13277,-16.45124 -14.30398,6.60806 -29.86212,10.05697 -45.60077,10.05697 -60.20879,0 -109.19195,-48.98317 -109.19195,-109.19195 0,-60.21354 48.98316,-109.19196 109.19195,-109.19196 4.14725,0 8.342,0.25159 12.55576,0.75534 25.1353,-26.93577 59.95227,-42.18036 97.17778,-42.18036 50.76938,0 96.64093,28.62222 119.0969,73.60541 31.14951,13.42987 51.52473,43.97131 51.52473,78.5175 0,47.17795 -38.37989,85.55309 -85.55784,85.55309 -0.88361,0 -1.77673,-0.019 -2.67459,-0.0475 -23.42982,18.48923 -52.36557,28.5747 -82.3892,28.5747"
       id="path3533"
       style="fill:#ffffff;fill-opacity:1;fill-rule:nonzero;stroke:none" />
    <path
       d="m 364.70476,606.76782 c 0,10.49878 -8.50828,19.0023 -19.00231,19.0023 -10.49401,0 -19.00229,-8.50352 -19.00229,-19.0023 0,-10.49401 8.50828,-19.00229 19.00229,-19.00229 10.49403,0 19.00231,8.50828 19.00231,19.00229"
       id="path3537"
       style="fill:#ffffff;fill-opacity:1;fill-rule:nonzero;stroke:none" />
    <path
       d="m 282.26567,568.76323 c 0,10.49877 -8.50828,19.0023 -19.00229,19.0023 -10.49402,0 -19.0023,-8.50353 -19.0023,-19.0023 0,-10.49402 8.50828,-19.0023 19.0023,-19.0023 10.49401,0 19.00229,8.50828 19.00229,19.0023"
       id="path3541"
       style="fill:#ffffff;fill-opacity:1;fill-rule:nonzero;stroke:none" />
    <path
       d="m 450.2151,568.76323 c 0,10.49877 -8.50828,19.0023 -19.00229,19.0023 -10.49402,0 -19.0023,-8.50353 -19.0023,-19.0023 0,-10.49402 8.50828,-19.0023 19.0023,-19.0023 10.49401,0 19.00229,8.50828 19.00229,19.0023"
       id="path3545"
       style="fill:#ffffff;fill-opacity:1;fill-rule:nonzero;stroke:none" />
    <path
       d="m 364.70476,682.19745 c 0,10.49877 -8.50828,19.0023 -19.00231,19.0023 -10.49401,0 -19.00229,-8.50353 -19.00229,-19.0023 0,-10.49402 8.50828,-19.0023 19.00229,-19.0023 10.49403,0 19.00231,8.50828 19.00231,19.0023"
       id="path3549"
       style="fill:#ffffff;fill-opacity:1;fill-rule:nonzero;stroke:none" />
    <path
       d="m 282.26567,644.77242 c 0,10.49877 -8.50828,19.0023 -19.00229,19.0023 -10.49402,0 -19.0023,-8.50353 -19.0023,-19.0023 0,-10.49402 8.50828,-19.0023 19.0023,-19.0023 10.49401,0 19.00229,8.50828 19.00229,19.0023"
       id="path3553"
       style="fill:#ffffff;fill-opacity:1;fill-rule:nonzero;stroke:none" />
    <path
       d="m 450.2151,644.77242 c 0,10.49877 -8.50828,19.0023 -19.00229,19.0023 -10.49402,0 -19.0023,-8.50353 -19.0023,-19.0023 0,-10.49402 8.50828,-19.0023 19.0023,-19.0023 10.49401,0 19.00229,8.50828 19.00229,19.0023"
       id="path3557"
       style="fill:#ffffff;fill-opacity:1;fill-rule:nonzero;stroke:none" />
  </g>
</svg>
