<?xml version="1.0" encoding="UTF-8" standalone="no"?>
<!-- Created with Inkscape (http://www.inkscape.org/) -->

<svg
   xmlns:dc="http://purl.org/dc/elements/1.1/"
   xmlns:cc="http://creativecommons.org/ns#"
   xmlns:rdf="http://www.w3.org/1999/02/22-rdf-syntax-ns#"
   xmlns:svg="http://www.w3.org/2000/svg"
   xmlns="http://www.w3.org/2000/svg"
   version="1.1"
   width="500"
   height="500"
   id="svg4503">
  <defs
     id="defs4505" />
  <metadata
     id="metadata4508">
    <rdf:RDF>
      <cc:Work
         rdf:about="">
        <dc:format>image/svg+xml</dc:format>
        <dc:type
           rdf:resource="http://purl.org/dc/dcmitype/StillImage" />
        <dc:title></dc:title>
      </cc:Work>
    </rdf:RDF>
  </metadata>
  <g
     transform="translate(-91.628542,-212.24884)"
     id="layer1">
    <path
       d="m 360.16089,273.04178 c -14.03674,-30.45341 -44.7468,-51.63452 -80.48732,-51.63452 -7.07903,0 -13.93408,0.9193 -20.53248,2.48723 5.58577,8.71231 8.87097,19.0532 8.87097,30.17808 0,30.92937 -25.06829,55.99767 -56.00234,55.99767 -7.35436,0 -14.35407,-1.45594 -20.78914,-4.0365 -0.0605,1.34861 -0.20532,2.67389 -0.20532,4.0365 0,8.8523 1.33928,17.38261 3.75185,25.45094 3.71918,12.42681 10.12157,23.66368 18.48856,33.13662 12.37082,-11.05021 28.64281,-17.83525 46.5014,-17.83525 5.03512,0 10.24757,0.60197 15.48802,1.78725 l 11.50285,2.6039 7.28904,-9.27695 c 17.86792,-22.74906 44.65814,-35.80118 73.50627,-35.80118 0.26581,0 0.52731,0.0261 0.7933,0.0261 0,-0.0336 0.007,-0.0653 0.007,-0.0933 0,-13.23411 -2.98189,-25.74959 -8.185,-37.02846"
       id="path3561"
       style="fill:#ffffff;fill-opacity:1;fill-rule:nonzero;stroke:none" />
    <path
       d="m 305.76942,493.3231 9.82759,6.58906 c 15.39003,10.3129 33.35128,15.76801 51.94718,15.76801 23.06637,0 45.22278,-8.48365 62.38607,-23.897 l 6.40706,-5.7491 8.53031,1.14329 c 2.45923,0.32665 4.43782,0.48065 6.23441,0.48065 25.77293,0 46.73939,-20.96647 46.73939,-46.73473 0,-20.49515 -13.11746,-38.4004 -32.64664,-44.56481 l -8.20366,-2.59456 -3.35519,-7.92367 c -14.67605,-34.64856 -48.46132,-57.03363 -86.09175,-57.03363 -28.84814,0 -55.64303,13.05213 -73.51095,35.80118 l -7.28437,9.27695 -11.50284,-2.60389 c -5.24045,-1.18529 -10.4529,-1.78726 -15.48803,-1.78726 -38.57306,0 -69.95042,31.37269 -69.95042,69.95042 0,38.57306 31.37736,69.95509 69.95042,69.95509 12.55281,0 24.9563,-3.45786 35.86184,-9.99092 l 10.14958,-6.08508 z m 61.77477,59.66086 c -22.19374,0 -43.75751,-5.55311 -62.99739,-16.16001 -14.04141,6.49107 -29.32878,9.87893 -44.7888,9.87893 -59.14287,0 -107.25887,-48.116 -107.25887,-107.25887 0,-59.14754 48.116,-107.25887 107.25887,-107.25887 4.07383,0 8.19433,0.24713 12.33349,0.74196 24.6903,-26.4589 58.89555,-41.43361 95.4527,-41.43361 49.87059,0 94.93471,28.1155 116.98846,72.30233 30.59807,13.19212 50.62189,43.19287 50.62189,77.12746 0,46.34274 -37.70509,84.03851 -84.0525,84.03851 -0.86796,0 -1.74059,-0.0186 -2.62255,-0.0467 -23.01505,18.16191 -51.4432,28.06884 -80.9353,28.06884"
       id="path3565"
       style="fill:#ffffff;fill-opacity:1;fill-rule:nonzero;stroke:none" />
    <path
       d="m 345.23192,633.25336 c -10.30824,0 -18.6659,8.35766 -18.6659,18.6659 l 0,36.76247 c 0,10.3129 8.35766,18.66589 18.6659,18.66589 10.30823,0 18.66588,-8.35299 18.66588,-18.66589 l 0,-36.76247 c 0,-10.30824 -8.35765,-18.6659 -18.66588,-18.6659"
       id="path3569"
       style="fill:#ffffff;fill-opacity:1;fill-rule:nonzero;stroke:none" />
    <path
       d="m 345.23192,531.16072 c -10.30824,0 -18.6659,8.35766 -18.6659,18.6659 l 0,36.76247 c 0,10.3129 8.35766,18.66589 18.6659,18.66589 10.30823,0 18.66588,-8.35299 18.66588,-18.66589 l 0,-36.76247 c 0,-10.30824 -8.35765,-18.6659 -18.66588,-18.6659"
       id="path3573"
       style="fill:#ffffff;fill-opacity:1;fill-rule:nonzero;stroke:none" />
    <path
       d="m 261.23772,596.49135 c -10.30823,0 -18.66589,8.35765 -18.66589,18.66588 l 0,36.76247 c 0,10.31291 8.35766,18.66589 18.66589,18.66589 10.30824,0 18.66589,-8.35298 18.66589,-18.66589 l 0,-36.76247 c 0,-10.30823 -8.35765,-18.66588 -18.66589,-18.66588"
       id="path3577"
       style="fill:#ffffff;fill-opacity:1;fill-rule:nonzero;stroke:none" />
    <path
       d="m 429.22842,596.49135 c -10.30824,0 -18.66589,8.35765 -18.66589,18.66588 l 0,36.76247 c 0,10.31291 8.35765,18.66589 18.66589,18.66589 10.30824,0 18.66589,-8.35298 18.66589,-18.66589 l 0,-36.76247 c 0,-10.30823 -8.35765,-18.66588 -18.66589,-18.66588"
       id="path3581"
       style="fill:#ffffff;fill-opacity:1;fill-rule:nonzero;stroke:none" />
    <path
       d="m 242.57183,531.18824 0,18.63789 c 0,10.31291 8.35766,18.66589 18.66589,18.66589 10.30824,0 18.66589,-8.35298 18.66589,-18.66589 l 0,-12.83747 c -12.34282,2.06726 -24.26565,0.004 -37.33178,-5.80042"
       id="path3585"
       style="fill:#ffffff;fill-opacity:1;fill-rule:nonzero;stroke:none" />
    <path
       d="m 410.56253,532.55507 0,17.27062 c 0,10.3129 8.35765,18.66589 18.66589,18.66589 10.30824,0 18.66589,-8.35299 18.66589,-18.66589 l 0,-34.70923 c -9.66893,4.55448 -26.11358,12.27749 -37.33178,17.43861"
       id="path3589"
       style="fill:#ffffff;fill-opacity:1;fill-rule:nonzero;stroke:none" />
  </g>
</svg>
