<?xml version="1.0" encoding="UTF-8" standalone="no"?>
<!-- Created with Inkscape (http://www.inkscape.org/) -->

<svg
   xmlns:dc="http://purl.org/dc/elements/1.1/"
   xmlns:cc="http://creativecommons.org/ns#"
   xmlns:rdf="http://www.w3.org/1999/02/22-rdf-syntax-ns#"
   xmlns:svg="http://www.w3.org/2000/svg"
   xmlns="http://www.w3.org/2000/svg"
   version="1.1"
   width="500"
   height="500"
   id="svg4503">
  <defs
     id="defs4505" />
  <metadata
     id="metadata4508">
    <rdf:RDF>
      <cc:Work
         rdf:about="">
        <dc:format>image/svg+xml</dc:format>
        <dc:type
           rdf:resource="http://purl.org/dc/dcmitype/StillImage" />
        <dc:title></dc:title>
      </cc:Work>
    </rdf:RDF>
  </metadata>
  <g
     transform="translate(-91.628542,-212.24884)"
     id="layer1">
    <path
       d="m 355.63235,274.24082 c -14.587,-31.64718 -46.50574,-53.65861 -83.6376,-53.65861 -7.36624,0 -14.48516,0.95533 -21.34221,2.58473 5.80958,9.05383 9.22356,19.8001 9.22356,31.36107 0,32.14182 -26.05582,58.1928 -58.19764,58.1928 -7.64266,0 -14.92161,-1.51302 -21.60893,-4.19474 -0.0628,1.40148 -0.20833,2.77871 -0.20833,4.19474 0,9.19931 1.38693,18.06401 3.89407,26.44862 3.86497,12.91395 10.52319,24.59131 19.21817,34.43559 12.85576,-11.48338 29.75592,-18.53441 48.31942,-18.53441 5.22765,0 10.64928,0.62558 16.09516,1.85732 l 11.95377,2.70597 7.57476,-9.64061 c 18.56835,-23.64082 46.40875,-37.20459 76.39259,-37.20459 0.27622,0 0.54314,0.0272 0.81955,0.0272 0,-0.0349 0.008,-0.0679 0.008,-0.097 0,-13.7529 -3.09877,-26.75899 -8.50585,-38.47999"
       id="path3593"
       style="fill:#ffffff;fill-opacity:1;fill-rule:nonzero;stroke:none" />
    <path
       d="m 299.10678,503.1572 10.21768,6.84735 c 15.98847,10.71718 34.65866,16.38612 53.98352,16.38612 23.97058,0 46.99553,-8.81621 64.83162,-24.83377 l 6.65338,-5.97446 8.86955,1.1881 c 2.55564,0.33946 4.61178,0.49949 6.48365,0.49949 26.77839,0 48.56189,-21.78835 48.56189,-48.56674 0,-21.29856 -13.62681,-39.90571 -33.9264,-46.31177 l -8.52525,-2.69626 -3.48186,-8.23429 c -15.25137,-36.00679 -50.36102,-59.26936 -89.46658,-59.26936 -29.97899,0 -57.82424,13.56377 -76.3926,37.2046 l -7.57476,9.6406 -11.95377,-2.70596 c -5.44587,-1.23175 -10.86265,-1.85732 -16.09031,-1.85732 -40.08513,0 -72.69735,32.60251 -72.69735,72.6925 0,40.08514 32.61222,72.69735 72.69735,72.69735 13.04489,0 25.92974,-3.5934 37.26764,-10.38256 l 10.5426,-6.32362 z m 64.2012,61.99958 c -23.0686,0 -45.47767,-5.77079 -65.4669,-16.79348 -14.59669,6.74552 -30.48332,10.26618 -46.54454,10.26618 -61.46129,0 -111.46345,-50.00216 -111.46345,-111.46345 0,-61.46614 50.00216,-111.46345 111.46345,-111.46345 4.23353,0 8.5107,0.25682 12.81212,0.77105 25.65817,-27.4961 61.20427,-43.05782 99.19932,-43.05782 51.83038,0 98.65134,29.21763 121.57445,75.1366 31.79752,13.70925 52.60144,44.88604 52.60144,80.15088 0,48.15939 -39.18315,87.33284 -87.33769,87.33284 -0.90684,0 -1.81852,-0.0194 -2.73506,-0.0485 -23.91724,18.87386 -53.45493,29.16914 -84.10314,29.16914"
       id="path3597"
       style="fill:#ffffff;fill-opacity:1;fill-rule:nonzero;stroke:none" />
    <path
       d="m 416.86572,689.06332 c 0,10.71233 8.68527,19.3976 19.3976,19.3976 10.71232,0 19.3976,-8.68527 19.3976,-19.3976 0,-10.71232 -8.68528,-19.3976 -19.3976,-19.3976 -10.71233,0 -19.3976,8.68528 -19.3976,19.3976"
       id="path3601"
       style="fill:#ffffff;fill-opacity:1;fill-rule:nonzero;stroke:none" />
    <path
       d="m 319.87772,650.26813 c 0,10.71232 8.68528,19.39759 19.3976,19.39759 10.71233,0 19.3976,-8.68527 19.3976,-19.39759 0,-10.71233 -8.68527,-19.3976 -19.3976,-19.3976 -10.71232,0 -19.3976,8.68527 -19.3976,19.3976"
       id="path3605"
       style="fill:#ffffff;fill-opacity:1;fill-rule:nonzero;stroke:none" />
    <path
       d="m 475.05852,650.26813 c 0,10.71232 8.68527,19.39759 19.3976,19.39759 10.71232,0 19.3976,-8.68527 19.3976,-19.39759 0,-10.71233 -8.68528,-19.3976 -19.3976,-19.3976 -10.71233,0 -19.3976,8.68527 -19.3976,19.3976"
       id="path3609"
       style="fill:#ffffff;fill-opacity:1;fill-rule:nonzero;stroke:none" />
    <path
       d="m 419.16725,698.23645 -77.5904,-144.57516 34.18342,-18.34528 77.59039,144.57516 -34.18341,18.34528 z"
       id="path3613"
       style="fill:#ffffff;fill-opacity:1;fill-rule:nonzero;stroke:none" />
    <path
       d="m 477.36004,659.44125 -64.17695,-119.5862 34.17857,-18.34528 64.1818,119.5862 -34.18342,18.34528 z"
       id="path3617"
       style="fill:#ffffff;fill-opacity:1;fill-rule:nonzero;stroke:none" />
    <path
       d="m 322.17925,659.44125 -64.17696,-119.5862 34.17857,-18.34528 64.18181,119.5862 -34.18342,18.34528 z"
       id="path3621"
       style="fill:#ffffff;fill-opacity:1;fill-rule:nonzero;stroke:none" />
  </g>
</svg>
