<?xml version="1.0" encoding="UTF-8" standalone="no"?>
<!-- Created with Inkscape (http://www.inkscape.org/) -->

<svg
   xmlns:dc="http://purl.org/dc/elements/1.1/"
   xmlns:cc="http://creativecommons.org/ns#"
   xmlns:rdf="http://www.w3.org/1999/02/22-rdf-syntax-ns#"
   xmlns:svg="http://www.w3.org/2000/svg"
   xmlns="http://www.w3.org/2000/svg"
   version="1.1"
   width="500"
   height="500"
   id="svg4503">
  <defs
     id="defs4505" />
  <metadata
     id="metadata4508">
    <rdf:RDF>
      <cc:Work
         rdf:about="">
        <dc:format>image/svg+xml</dc:format>
        <dc:type
           rdf:resource="http://purl.org/dc/dcmitype/StillImage" />
        <dc:title></dc:title>
      </cc:Work>
    </rdf:RDF>
  </metadata>
  <g
     transform="translate(-91.628542,-212.24884)"
     id="layer1">
    <path
       d="m 361.16853,274.44143 c -15.64091,-33.93371 -49.86581,-57.53547 -89.68566,-57.53547 -7.89325,0 -15.52651,1.02435 -22.87899,2.77148 6.22413,9.70797 9.88476,21.23066 9.88476,33.62692 0,34.46408 -27.93317,62.39725 -62.40245,62.39725 -8.19484,0 -15.9945,-1.62233 -23.16498,-4.4978 -0.0728,1.50274 -0.22879,2.97947 -0.22879,4.4978 0,9.86397 1.48713,19.36915 4.18062,28.35956 4.14421,13.84699 11.2783,26.36804 20.60149,36.92357 13.78459,-12.31306 31.91099,-19.87352 51.81052,-19.87352 5.61055,0 11.4239,0.67077 17.26324,1.99151 l 12.81744,2.90147 8.11684,-10.33714 c 19.90992,-25.34889 49.76701,-39.89265 81.912,-39.89265 0.29617,0 0.58757,0.0291 0.88396,0.0291 0,-0.0374 0.004,-0.0728 0.004,-0.104 0,-14.74655 -3.32266,-28.69233 -9.1152,-41.26018"
       id="path3625"
       style="fill:#ffffff;fill-opacity:1;fill-rule:nonzero;stroke:none" />
    <path
       d="m 300.55895,519.89713 10.95072,7.34208 c 17.14885,11.49149 37.16277,17.57002 57.88386,17.57002 25.70766,0 50.39618,-9.45318 69.51574,-26.62803 l 7.13928,-6.40611 9.51038,1.27394 c 2.73508,0.36398 4.94499,0.53558 6.9469,0.53558 28.71834,0 52.07571,-23.36258 52.07571,-52.07571 0,-22.8374 -14.61656,-42.78892 -36.3776,-49.65782 l -9.1412,-2.89107 -3.73863,-8.82921 c -16.34809,-38.6083 -53.99963,-63.55161 -95.93058,-63.55161 -32.13979,0 -62.00208,14.54376 -81.912,39.89265 l -8.11684,10.33714 -12.81744,-2.90147 c -5.83934,-1.32074 -11.64749,-1.99151 -17.25804,-1.99151 -42.98131,0 -77.94457,34.95806 -77.94457,77.94457 0,42.98131 34.96326,77.94977 77.94457,77.94977 13.98738,0 27.80838,-3.85303 39.96024,-11.13271 l 11.3095,-6.7805 z m 68.83458,66.47907 c -24.73012,0 -48.75826,-6.18772 -70.19692,-18.0068 -15.64611,7.23288 -32.68056,11.00791 -49.9074,11.00791 -65.9019,0 -119.51673,-53.61484 -119.51673,-119.51674 0,-65.9071 53.61483,-119.51674 119.51673,-119.51674 4.5394,0 9.1308,0.27538 13.74299,0.82676 27.51199,-29.4827 65.62112,-46.16877 106.36133,-46.16877 55.57515,0 105.78414,31.32863 130.36346,80.56526 34.0897,14.69975 56.39672,48.12908 56.39672,85.94182 0,51.63893 -42.00895,93.64268 -93.64788,93.64268 -0.96716,0 -1.94472,-0.0208 -2.92747,-0.052 -25.64527,20.23751 -57.31708,31.27662 -90.18483,31.27662"
       id="path3629"
       style="fill:#ffffff;fill-opacity:1;fill-rule:nonzero;stroke:none" />
    <path
       d="m 298.69016,567.63469 115.25813,139.95704 -44.19806,-139.95704 -71.06007,0 z"
       id="path3633"
       style="fill:#ffffff;fill-opacity:1;fill-rule:nonzero;stroke:none" />
    <path
       d="M 451.64663,604.03309 336.3885,464.07605 l 44.20325,139.95704 71.05488,0 z"
       id="path3637"
       style="fill:#ffffff;fill-opacity:1;fill-rule:nonzero;stroke:none" />
  </g>
</svg>
