<?xml version="1.0" encoding="UTF-8" standalone="no"?>
<!-- Created with Inkscape (http://www.inkscape.org/) -->

<svg
   xmlns:dc="http://purl.org/dc/elements/1.1/"
   xmlns:cc="http://creativecommons.org/ns#"
   xmlns:rdf="http://www.w3.org/1999/02/22-rdf-syntax-ns#"
   xmlns:svg="http://www.w3.org/2000/svg"
   xmlns="http://www.w3.org/2000/svg"
   version="1.1"
   width="500"
   height="500"
   id="svg4503">
  <defs
     id="defs4505" />
  <metadata
     id="metadata4508">
    <rdf:RDF>
      <cc:Work
         rdf:about="">
        <dc:format>image/svg+xml</dc:format>
        <dc:type
           rdf:resource="http://purl.org/dc/dcmitype/StillImage" />
        <dc:title></dc:title>
      </cc:Work>
    </rdf:RDF>
  </metadata>
  <g
     transform="translate(-91.628542,-212.24884)"
     id="layer1">
    <path
       d="m 217.07618,462.24593 c 0,69.63606 56.43866,126.07486 126.06812,126.07486 69.62273,0 126.0681,-56.4388 126.0681,-126.07486 0,-69.62947 -56.44537,-126.06811 -126.0681,-126.06811 -69.62946,0 -126.06812,56.43864 -126.06812,126.06811"
       id="path3149"
       style="fill:#ffffff;fill-opacity:1;fill-rule:nonzero;stroke:none" />
    <path
       d="m 369.68487,269.81934 c 0,-28.09996 -23.86,-52.24527 -26.44774,-53.04153 -0.0129,-0.0129 -0.0405,-0.0257 -0.0538,-0.0257 -0.005,0 -0.0257,0.005 -0.0257,0.005 -0.005,0 -0.0257,-0.005 -0.0257,-0.005 -0.0257,0 -0.0405,0.0129 -0.0538,0.0257 -2.58778,0.7961 -26.4479,24.94157 -26.4479,53.04153 0,19.34148 15.09504,26.50088 26.47442,26.54074 0.0128,0 0.0257,0.005 0.0257,0.005 l 0.0257,0 0.0404,0 c 0.0129,0 0.0129,-0.005 0.0257,-0.005 11.37925,-0.0405 26.47431,-7.19926 26.47431,-26.54074"
       id="path3153"
       style="fill:#ffffff;fill-opacity:1;fill-rule:nonzero;stroke:none" />
    <path
       d="m 316.60358,654.67828 c 0,28.09997 23.86016,52.24532 26.44777,53.04158 0.0257,0.0129 0.0404,0.0257 0.0538,0.0257 0.005,0 0.0257,-0.005 0.0257,-0.005 0.005,0 0.0257,0.005 0.0257,0.005 0.0257,0 0.0404,-0.0129 0.0538,-0.0257 2.58775,-0.79612 26.44776,-24.94161 26.44776,-53.04158 0,-19.34147 -15.09493,-26.50083 -26.4743,-26.54071 -0.0129,0 -0.0257,-0.005 -0.0257,-0.005 l -0.0405,0 -0.0257,0 c -0.0129,0 -0.0129,0.005 -0.0257,0.005 -11.37926,0.0405 -26.47431,7.19924 -26.47431,26.54071"
       id="path3157"
       style="fill:#ffffff;fill-opacity:1;fill-rule:nonzero;stroke:none" />
    <path
       d="m 535.57345,488.79313 c 28.0998,0 52.24527,-23.86678 53.04141,-26.44778 0.0129,-0.0129 0.0257,-0.0405 0.0257,-0.0673 0,0 -0.005,-0.0128 -0.005,-0.0257 0,-0.0128 0.005,-0.0257 0.005,-0.0404 0,-0.0129 -0.0257,-0.0405 -0.0257,-0.0538 -0.79614,-2.58113 -24.94161,-26.44117 -53.04141,-26.44117 -19.34164,0 -26.50088,15.08831 -26.54074,26.4743 0,0.005 -0.005,0.0129 -0.005,0.0257 l 0,0.0405 0,0.0257 c 0,0.0257 0.005,0.0257 0.005,0.0404 0.0405,11.37936 7.1991,26.47429 26.54074,26.47429"
       id="path3161"
       style="fill:#ffffff;fill-opacity:1;fill-rule:nonzero;stroke:none" />
    <path
       d="m 150.71451,435.71184 c -28.09997,0 -52.245316,23.86 -53.041581,26.44113 -0.01284,0.0128 -0.0257,0.0404 -0.0257,0.0538 0,0.0129 0.0055,0.0257 0.0055,0.0404 0,0.005 -0.0055,0.0257 -0.0055,0.0257 0,0.0257 0.01285,0.0405 0.0257,0.0674 0.79613,2.58104 24.941611,26.44779 53.041581,26.44779 19.34147,0 26.50083,-15.09506 26.54057,-26.4743 0,-0.0129 0.005,-0.0257 0.005,-0.0405 l 0,-0.0257 0,-0.0404 c 0,-0.0129 -0.005,-0.0129 -0.005,-0.0257 -0.0404,-11.37925 -7.1991,-26.46771 -26.54057,-26.46771"
       id="path3165"
       style="fill:#ffffff;fill-opacity:1;fill-rule:nonzero;stroke:none" />
    <path
       d="m 497.9785,344.9448 c 19.87238,-19.86563 20.07134,-53.81115 18.80415,-56.20655 -0.005,-0.0129 -0.005,-0.0538 -0.0257,-0.0538 0,-0.005 -0.0129,-0.0129 -0.0257,-0.0129 -0.005,-0.005 -0.0129,-0.0257 -0.0129,-0.0257 -0.0128,-0.0128 -0.0404,-0.0128 -0.0673,-0.0128 -2.38868,-1.27435 -36.3342,-1.06824 -56.20656,18.80411 -13.6751,13.67511 -8.06837,29.40707 -0.0405,37.48204 0.005,0.005 0.0128,0.0128 0.0128,0.0257 0.005,0.005 0.0129,0.0128 0.0257,0.0128 0.005,0.0129 0.0129,0.0129 0.0129,0.0257 0.0128,0.005 0.0257,0.005 0.0257,0.0128 8.0684,8.01532 23.80698,13.62862 37.48207,-0.0538"
       id="path3169"
       style="fill:#ffffff;fill-opacity:1;fill-rule:nonzero;stroke:none" />
    <path
       d="m 188.30927,579.54695 c -19.87224,19.87233 -20.07132,53.81771 -18.80399,56.21312 0,0.0129 0,0.0405 0.0129,0.0538 0,0.005 0.0128,0.0128 0.0257,0.0128 0.005,0.005 0.0129,0.0257 0.0257,0.0257 0.0128,0.0129 0.0404,0.0129 0.0674,0.0129 2.38864,1.27434 36.33418,1.06823 56.20653,-18.80415 13.6751,-13.6751 8.06838,-29.40703 0.0404,-37.48203 l -0.0129,-0.0257 c -0.005,-0.005 -0.0129,-0.0129 -0.0257,-0.0129 -0.005,-0.0128 -0.0129,-0.0257 -0.0129,-0.0257 -0.0129,-0.0129 -0.0129,-0.0129 -0.0257,-0.0129 -8.06836,-8.01533 -23.80707,-13.62862 -37.48216,0.0404"
       id="path3173"
       style="fill:#ffffff;fill-opacity:1;fill-rule:nonzero;stroke:none" />
    <path
       d="m 460.44206,617.09012 c 19.87236,19.86564 53.81788,20.06472 56.21315,18.79739 0.0257,0 0.0405,0 0.0672,-0.0129 l 0.0128,-0.0257 c 0.005,-0.005 0.0129,-0.0129 0.0257,-0.0257 0.0129,-0.0128 0.0129,-0.0405 0.0129,-0.0673 1.26088,-2.38864 1.06153,-36.32757 -18.8106,-56.19978 -13.67508,-13.68171 -29.40702,-8.06841 -37.48875,-0.0405 -0.005,0 -0.0129,0 -0.0257,0.0129 -0.005,0.005 -0.0129,0.0257 -0.0257,0.0257 -0.0129,0.0129 -0.0129,0.0129 -0.0129,0.0129 -0.0128,0.0129 -0.0128,0.0257 -0.0257,0.0257 -8.01529,8.0684 -13.62859,23.8071 0.0404,37.48879"
       id="path3177"
       style="fill:#ffffff;fill-opacity:1;fill-rule:nonzero;stroke:none" />
    <path
       d="m 225.83978,307.41429 c -19.87233,-19.86563 -53.81113,-20.07134 -56.20652,-18.80415 -0.0128,0 -0.0404,0 -0.0538,0.0129 -0.005,0.0128 -0.0129,0.0257 -0.0257,0.0257 0,0.005 -0.0129,0.0128 -0.0129,0.0128 -0.0257,0.0129 -0.0257,0.0404 -0.0257,0.0673 -1.26088,2.38864 -1.06151,36.33419 18.80413,56.20657 13.67509,13.68166 29.41379,8.06161 37.48875,0.0405 0.0129,-0.0129 0.0257,-0.0129 0.0257,-0.0257 0.005,0 0.0129,-0.0129 0.0129,-0.0129 0.005,-0.0128 0.0129,-0.0128 0.0257,-0.0257 0.005,-0.005 0.005,-0.0128 0.0129,-0.0257 8.01517,-8.06849 13.62848,-23.80048 -0.0538,-37.48217"
       id="path3181"
       style="fill:#ffffff;fill-opacity:1;fill-rule:nonzero;stroke:none" />
  </g>
</svg>
