<?xml version="1.0" encoding="UTF-8" standalone="no"?>
<!-- Created with Inkscape (http://www.inkscape.org/) -->

<svg
   xmlns:dc="http://purl.org/dc/elements/1.1/"
   xmlns:cc="http://creativecommons.org/ns#"
   xmlns:rdf="http://www.w3.org/1999/02/22-rdf-syntax-ns#"
   xmlns:svg="http://www.w3.org/2000/svg"
   xmlns="http://www.w3.org/2000/svg"
   version="1.1"
   width="500"
   height="500"
   id="svg4503">
  <defs
     id="defs4505" />
  <metadata
     id="metadata4508">
    <rdf:RDF>
      <cc:Work
         rdf:about="">
        <dc:format>image/svg+xml</dc:format>
        <dc:type
           rdf:resource="http://purl.org/dc/dcmitype/StillImage" />
        <dc:title></dc:title>
      </cc:Work>
    </rdf:RDF>
  </metadata>
  <g
     transform="translate(-91.628542,-212.24884)"
     id="layer1">
    <path
       d="m 359.5764,287.82226 c -17.37715,-37.70055 -55.40121,-63.92225 -99.63553,-63.92225 -8.77523,0 -17.25583,1.13806 -25.42447,3.07913 6.92081,10.78562 10.98781,23.5874 10.98781,37.35971 0,38.2898 -31.0397,69.32372 -69.32951,69.32372 -9.10451,0 -17.77575,-1.80241 -25.74221,-4.99708 -0.0749,1.66955 -0.24817,3.31021 -0.24817,4.99708 0,10.95893 1.65221,21.51924 4.63891,31.50764 4.60425,15.38409 12.53604,29.29505 22.89416,41.02231 15.31476,-13.67988 35.44753,-22.0796 57.5618,-22.0796 6.22758,0 12.68624,0.74523 19.17378,2.21258 l 14.24025,3.22355 9.02364,-11.48463 c 22.12005,-28.16276 55.28567,-44.32097 91.00472,-44.32097 0.32906,0 0.64702,0.0324 0.97631,0.0324 0,-0.0416 0.009,-0.0809 0.009,-0.11554 0,-16.3835 -3.69148,-31.87736 -10.13281,-45.84031"
       id="path3593"
       style="fill:#ffffff;fill-opacity:1;fill-rule:nonzero;stroke:none" />
    <path
       d="m 292.2388,560.52502 12.17209,8.15709 c 19.04669,12.76712 41.28805,19.52041 64.30931,19.52041 28.55559,0 55.98468,-10.50255 77.2324,-29.5839 l 7.92601,-7.11724 10.5661,1.41536 c 3.04446,0.40439 5.4939,0.59503 7.72381,0.59503 31.90047,0 57.85065,-25.95596 57.85065,-57.85643 0,-25.37248 -16.2333,-47.53874 -40.41573,-55.17013 l -10.15593,-3.212 -4.14786,-9.8093 c -18.1686,-42.89406 -59.99391,-70.60622 -106.57945,-70.60622 -35.71328,0 -68.88468,16.15821 -91.00472,44.32097 l -9.02364,11.48463 -14.24025,-3.22355 c -6.48755,-1.46735 -12.94043,-2.21258 -19.16801,-2.21258 -47.75249,0 -86.60267,38.83861 -86.60267,86.59688 0,47.75249 38.85018,86.60267 86.60267,86.60267 15.54007,0 30.88949,-4.28074 44.39607,-12.36851 l 12.55915,-7.53318 z m 76.4814,73.85865 c -27.48108,0 -54.1765,-6.8746 -77.9892,-20.00567 -17.3887,8.03578 -36.31407,12.22986 -55.44742,12.22986 -73.21741,0 -132.78382,-59.56641 -132.78382,-132.78382 0,-73.22318 59.56641,-132.78382 132.78382,-132.78382 5.0433,0 10.13859,0.30595 15.26277,0.91854 30.56599,-32.75546 72.91123,-51.29378 118.17385,-51.29378 61.74433,0 117.52104,34.80629 144.82881,89.50849 37.87964,16.33151 62.66287,53.4717 62.66287,95.48187 0,57.37116 -46.67797,104.03758 -104.04336,104.03758 -1.08029,0 -2.16636,-0.0231 -3.25821,-0.0578 -28.49205,22.484 -63.67962,34.74852 -100.19011,34.74852"
       id="path3597"
       style="fill:#ffffff;fill-opacity:1;fill-rule:nonzero;stroke:none" />
  </g>
</svg>
