<?xml version="1.0" encoding="UTF-8" standalone="no"?>
<!-- Created with Inkscape (http://www.inkscape.org/) -->

<svg
   xmlns:dc="http://purl.org/dc/elements/1.1/"
   xmlns:cc="http://creativecommons.org/ns#"
   xmlns:rdf="http://www.w3.org/1999/02/22-rdf-syntax-ns#"
   xmlns:svg="http://www.w3.org/2000/svg"
   xmlns="http://www.w3.org/2000/svg"
   version="1.1"
   width="500"
   height="500"
   id="svg4503">
  <defs
     id="defs4505" />
  <metadata
     id="metadata4508">
    <rdf:RDF>
      <cc:Work
         rdf:about="">
        <dc:format>image/svg+xml</dc:format>
        <dc:type
           rdf:resource="http://purl.org/dc/dcmitype/StillImage" />
        <dc:title></dc:title>
      </cc:Work>
    </rdf:RDF>
  </metadata>
  <g
     transform="translate(-91.628542,-212.24884)"
     id="layer1">
    <path
       d="m 302.62342,543.54362 10.59733,7.10513 c 16.59042,11.12067 35.96353,17.00305 56.02096,17.00305 24.87305,0 48.75983,-9.14811 67.27247,-25.76874 l 6.90387,-6.19939 9.20347,1.23284 c 2.64683,0.35223 4.78541,0.51829 6.72776,0.51829 27.78151,0 50.39018,-22.60867 50.39018,-50.39521 0,-22.10043 -14.14488,-41.40813 -35.2037,-48.05536 l -8.85124,-2.79778 -3.61295,-8.54428 c -15.82557,-37.36241 -52.25704,-61.50078 -92.82986,-61.50078 -31.10765,0 -60.00124,14.07442 -79.27369,38.60529 l -7.85493,10.00357 -12.40381,-2.80785 c -5.65595,-1.27811 -11.27163,-1.92724 -16.70113,-1.92724 -41.5943,0 -75.43431,33.82996 -75.43431,75.42928 0,41.5943 33.84001,75.43431 75.43431,75.43431 13.54105,0 26.91099,-3.72867 38.67072,-10.77344 l 10.94455,-6.56169 z m 66.61829,64.33378 c -23.94213,0 -47.19488,-5.98805 -67.93164,-17.42573 -15.15127,6.99948 -31.63098,10.6527 -48.30192,10.6527 -63.77523,0 -115.65991,-51.88469 -115.65991,-115.65993 0,-63.78025 51.88468,-115.65992 115.65991,-115.65992 4.39292,0 8.83615,0.26652 13.29951,0.8001 26.62417,-28.53129 63.50351,-44.67891 102.93405,-44.67891 53.78175,0 102.36544,30.31765 126.15158,77.9654 32.99467,14.2254 54.57679,46.57596 54.57679,83.16848 0,49.97252 -40.65833,90.62082 -90.6208,90.62082 -0.94098,0 -1.887,-0.0201 -2.84307,-0.0504 -24.81267,19.58444 -55.46241,30.26732 -87.2645,30.26732"
       id="path3209"
       style="fill:#ffffff;fill-opacity:1;fill-rule:nonzero;stroke:none" />
  </g>
</svg>
