<?xml version="1.0" encoding="UTF-8" standalone="no"?>
<!-- Created with Inkscape (http://www.inkscape.org/) -->

<svg
   xmlns:dc="http://purl.org/dc/elements/1.1/"
   xmlns:cc="http://creativecommons.org/ns#"
   xmlns:rdf="http://www.w3.org/1999/02/22-rdf-syntax-ns#"
   xmlns:svg="http://www.w3.org/2000/svg"
   xmlns="http://www.w3.org/2000/svg"
   xmlns:sodipodi="http://sodipodi.sourceforge.net/DTD/sodipodi-0.dtd"
   xmlns:inkscape="http://www.inkscape.org/namespaces/inkscape"
   width="500"
   height="500"
   id="svg4503"
   version="1.1"
   inkscape:version="0.48.4 r9939"
   sodipodi:docname="03.svg">
  <defs
     id="defs4505" />
  <sodipodi:namedview
     id="base"
     pagecolor="#ffffff"
     bordercolor="#666666"
     borderopacity="1.0"
     inkscape:pageopacity="0.0"
     inkscape:pageshadow="2"
     inkscape:zoom="0.66"
     inkscape:cx="283.37146"
     inkscape:cy="199.88666"
     inkscape:document-units="px"
     inkscape:current-layer="layer1"
     showgrid="false"
     fit-margin-top="0"
     fit-margin-left="0"
     fit-margin-right="0"
     fit-margin-bottom="0"
     inkscape:window-width="1280"
     inkscape:window-height="746"
     inkscape:window-x="1358"
     inkscape:window-y="-8"
     inkscape:window-maximized="1" />
  <metadata
     id="metadata4508">
    <rdf:RDF>
      <cc:Work
         rdf:about="">
        <dc:format>image/svg+xml</dc:format>
        <dc:type
           rdf:resource="http://purl.org/dc/dcmitype/StillImage" />
        <dc:title></dc:title>
      </cc:Work>
    </rdf:RDF>
  </metadata>
  <g
     inkscape:label="レイヤー 1"
     inkscape:groupmode="layer"
     id="layer1"
     transform="translate(-91.628542,-212.24884)">
    <path
       id="path3213"
       style="fill:#ffffff;fill-opacity:1;fill-rule:nonzero;stroke:none"
       d="m 325.7089,532.70043 9.31531,6.24559 c 14.5878,9.77533 31.61278,14.94608 49.23933,14.94608 21.86844,0 42.8699,-8.04142 59.1341,-22.65133 l 6.07309,-5.44942 8.09007,1.0837 c 2.32662,0.30962 4.20649,0.45559 5.90943,0.45559 24.42947,0 44.2986,-19.87355 44.2986,-44.2986 0,-19.4268 -12.43369,-36.39871 -30.94489,-42.24179 l -7.77602,-2.45932 -3.1803,-7.51064 c -13.90662,-32.84243 -45.93519,-54.06064 -81.60408,-54.06064 -27.33994,0 -52.74252,12.37176 -69.67905,33.93498 l -6.90466,8.79336 -10.90325,-2.46815 c -4.96727,-1.1235 -9.90802,-1.6941 -14.68068,-1.6941 -36.56237,0 -66.30413,29.73734 -66.30413,66.30414 0,36.56237 29.74176,66.30856 66.30413,66.30856 11.89848,0 23.65541,-3.2776 33.99249,-9.47013 l 9.62051,-5.76788 z m 58.55464,56.55092 c -21.03685,0 -41.47657,-5.26363 -59.71352,-15.31762 -13.30949,6.1527 -27.79997,9.36396 -42.45412,9.36396 -56.05994,0 -101.66782,-45.60786 -101.66782,-101.66781 0,-56.06437 45.60788,-101.66782 101.66782,-101.66782 3.86148,0 7.76718,0.23425 11.69059,0.70329 23.40328,-25.07968 55.82109,-39.27381 90.47705,-39.27381 47.27543,0 89.98609,26.64993 110.89467,68.53344 28.99867,12.50446 47.9743,40.94138 47.9743,73.10706 0,43.92704 -35.73524,79.65785 -79.66228,79.65785 -0.82272,0 -1.65428,-0.0177 -2.49027,-0.0443 -21.81535,17.2152 -48.75721,26.60569 -76.71642,26.60569"
       inkscape:connector-curvature="0" />
    <path
       id="path3217"
       style="fill:#ffffff;fill-opacity:1;fill-rule:nonzero;stroke:none"
       d="m 318.67201,248.41314 c 0,-18.73236 -15.91034,-34.82848 -17.62655,-35.35927 -0.0177,-0.007 -0.0283,-0.0212 -0.0443,-0.0212 -0.003,0 -0.0177,0.003 -0.0212,0.003 -0.003,0 -0.0177,-0.003 -0.0212,-0.003 -0.0177,0 -0.0248,0.0141 -0.0443,0.0212 -1.71621,0.53079 -17.62655,16.62691 -17.62655,35.35927 0,12.89369 10.05842,17.66635 17.64866,17.69289 0.003,0 0.0141,0.003 0.0212,0.003 l 0.0212,0 0.0212,0 c 0.007,0 0.0177,-0.003 0.0248,-0.003 7.58584,-0.0248 17.64424,-4.7992 17.64424,-17.69289"
       inkscape:connector-curvature="0" />
    <path
       id="path3221"
       style="fill:#ffffff;fill-opacity:1;fill-rule:nonzero;stroke:none"
       d="m 172.70163,359.00217 c -18.73679,0 -34.83289,15.90591 -35.35926,17.62655 -0.007,0.0141 -0.0248,0.0248 -0.0248,0.04 0,0.007 0.007,0.0177 0.007,0.0248 0,0.003 -0.007,0.0177 -0.007,0.0177 0,0.0177 0.0177,0.0319 0.0248,0.0443 0.52637,1.72063 16.62247,17.63098 35.35926,17.63098 12.88928,0 17.66636,-10.06284 17.69291,-17.64868 l 0,-0.0248 0,-0.0177 0,-0.0248 0,-0.0212 c -0.0283,-7.58583 -4.80363,-17.64424 -17.69291,-17.64424"
       inkscape:connector-curvature="0" />
    <path
       id="path3225"
       style="fill:#ffffff;fill-opacity:1;fill-rule:nonzero;stroke:none"
       d="m 404.19506,298.49377 c 13.25197,-13.24313 13.38025,-35.87236 12.53984,-37.46914 -0.003,-0.0141 -0.003,-0.0354 -0.0141,-0.0396 -0.003,-0.003 -0.0177,-0.007 -0.0177,-0.0141 -0.007,-0.003 -0.007,-0.0177 -0.0177,-0.0177 -0.007,-0.0141 -0.0248,-0.0141 -0.0443,-0.0141 -1.58794,-0.84926 -24.22158,-0.71214 -37.46472,12.53542 -9.11626,9.11626 -5.37864,19.60373 -0.0319,24.9868 0.003,0.003 0.003,0.0141 0.0141,0.0212 0.003,0.003 0.007,0.0107 0.0177,0.0141 0,0.007 0.007,0.0141 0.0141,0.0177 0.003,0.003 0.0141,0.003 0.0212,0.0141 5.37864,5.34325 15.8661,9.0853 24.98237,-0.0354"
       inkscape:connector-curvature="0" />
    <path
       id="path3229"
       style="fill:#ffffff;fill-opacity:1;fill-rule:nonzero;stroke:none"
       d="m 222.78223,273.47512 c -13.24756,-13.24314 -35.87678,-13.38025 -37.46914,-12.53542 -0.0177,0 -0.0353,0 -0.04,0.007 -0.007,0.007 -0.007,0.0177 -0.0177,0.0212 0,0.003 -0.0177,0.0141 -0.0177,0.0141 -0.007,0.007 -0.007,0.0319 -0.0141,0.0443 -0.84484,1.59236 -0.71214,24.22158 12.53542,37.46914 9.11627,9.12068 19.60373,5.37421 24.9868,0.0319 0.007,-0.007 0.0177,-0.007 0.0248,-0.0177 l 0.007,-0.0107 c 0.0106,-0.007 0.0141,-0.0141 0.0177,-0.0212 0.007,-0.003 0.007,-0.0141 0.0177,-0.0177 5.34325,-5.37864 9.08088,-15.86611 -0.0353,-24.9868"
       inkscape:connector-curvature="0" />
    <path
       id="path3233"
       style="fill:#ffffff;fill-opacity:1;fill-rule:nonzero;stroke:none"
       d="m 306.54707,386.46155 c 36.23063,-23.12904 55.8034,-32.79821 74.45171,-35.42119 -10.84574,-33.8642 -42.55584,-58.39098 -80.02498,-58.39098 -46.41289,0 -84.03684,37.62394 -84.03684,84.04127 0,13.19005 3.12279,25.61931 8.53682,36.73045 10.6069,-12.06655 33.47939,-27.49477 81.07329,-26.95955"
       inkscape:connector-curvature="0" />
    <path
       id="path3237"
       style="fill:#ffffff;fill-opacity:1;fill-rule:nonzero;stroke:none"
       d="m 383.65137,623.54062 c 0,9.77533 -7.92199,17.6929 -17.6929,17.6929 -9.7709,0 -17.6929,-7.91757 -17.6929,-17.6929 0,-9.77091 7.922,-17.6929 17.6929,-17.6929 9.77091,0 17.6929,7.92199 17.6929,17.6929"
       inkscape:connector-curvature="0" />
    <path
       id="path3241"
       style="fill:#ffffff;fill-opacity:1;fill-rule:nonzero;stroke:none"
       d="m 306.89254,588.15483 c 0,9.77532 -7.922,17.69289 -17.6929,17.69289 -9.77091,0 -17.6929,-7.91757 -17.6929,-17.69289 0,-9.77091 7.92199,-17.69291 17.6929,-17.69291 9.7709,0 17.6929,7.922 17.6929,17.69291"
       inkscape:connector-curvature="0" />
    <path
       id="path3245"
       style="fill:#ffffff;fill-opacity:1;fill-rule:nonzero;stroke:none"
       d="m 463.26942,588.15483 c 0,9.77532 -7.922,17.69289 -17.6929,17.69289 -9.7709,0 -17.6929,-7.91757 -17.6929,-17.69289 0,-9.77091 7.922,-17.69291 17.6929,-17.69291 9.7709,0 17.6929,7.922 17.6929,17.69291"
       inkscape:connector-curvature="0" />
    <path
       id="path3249"
       style="fill:#ffffff;fill-opacity:1;fill-rule:nonzero;stroke:none"
       d="m 383.65137,693.77212 c 0,9.77533 -7.92199,17.6929 -17.6929,17.6929 -9.7709,0 -17.6929,-7.91757 -17.6929,-17.6929 0,-9.7709 7.922,-17.69289 17.6929,-17.69289 9.77091,0 17.6929,7.92199 17.6929,17.69289"
       inkscape:connector-curvature="0" />
    <path
       id="path3253"
       style="fill:#ffffff;fill-opacity:1;fill-rule:nonzero;stroke:none"
       d="m 306.89254,658.92642 c 0,9.77532 -7.922,17.69289 -17.6929,17.69289 -9.77091,0 -17.6929,-7.91757 -17.6929,-17.69289 0,-9.7709 7.92199,-17.6929 17.6929,-17.6929 9.7709,0 17.6929,7.922 17.6929,17.6929"
       inkscape:connector-curvature="0" />
    <path
       id="path3257"
       style="fill:#ffffff;fill-opacity:1;fill-rule:nonzero;stroke:none"
       d="m 463.26942,658.92642 c 0,9.77532 -7.922,17.69289 -17.6929,17.69289 -9.7709,0 -17.6929,-7.91757 -17.6929,-17.69289 0,-9.7709 7.922,-17.6929 17.6929,-17.6929 9.7709,0 17.6929,7.922 17.6929,17.6929"
       inkscape:connector-curvature="0" />
  </g>
</svg>
