<?xml version="1.0" encoding="UTF-8" standalone="no"?>
<!-- Created with Inkscape (http://www.inkscape.org/) -->

<svg
   xmlns:dc="http://purl.org/dc/elements/1.1/"
   xmlns:cc="http://creativecommons.org/ns#"
   xmlns:rdf="http://www.w3.org/1999/02/22-rdf-syntax-ns#"
   xmlns:svg="http://www.w3.org/2000/svg"
   xmlns="http://www.w3.org/2000/svg"
   version="1.1"
   width="500"
   height="500"
   id="svg4503">
  <defs
     id="defs4505" />
  <metadata
     id="metadata4508">
    <rdf:RDF>
      <cc:Work
         rdf:about="">
        <dc:format>image/svg+xml</dc:format>
        <dc:type
           rdf:resource="http://purl.org/dc/dcmitype/StillImage" />
        <dc:title></dc:title>
      </cc:Work>
    </rdf:RDF>
  </metadata>
  <g
     transform="translate(-91.628542,-212.24884)"
     id="layer1">
    <path
       d="m 300.18665,465.31626 11.58971,7.77049 c 18.14946,12.16203 39.33121,18.59525 61.26686,18.59525 27.2022,0 53.3258,-10.00478 73.57198,-28.18176 l 7.55035,-6.77993 10.06532,1.34828 c 2.89468,0.38523 5.23352,0.56682 7.35775,0.56682 30.38304,0 55.10881,-24.72577 55.10881,-55.11431 0,-24.16997 -15.46942,-45.28565 -38.50021,-52.55534 l -9.68009,-3.05979 -3.9513,-9.34439 c -17.30749,-40.86108 -57.15048,-67.25982 -101.52261,-67.25982 -34.02064,0 -65.61987,15.39238 -86.69707,42.22038 l -8.59043,10.94031 -13.56535,-3.07077 c -6.18557,-1.39782 -12.32711,-2.10772 -18.26504,-2.10772 -45.48926,0 -82.49262,36.99786 -82.49262,82.49263 0,45.48926 37.00336,82.49812 82.49262,82.49812 14.80906,0 29.431,-4.07786 42.29192,-11.78229 l 11.9694,-7.17616 z m 72.85657,70.35813 c -26.17861,0 -51.60879,-6.54878 -74.29288,-19.0575 -16.57008,7.65492 -34.59297,11.65022 -52.82501,11.65022 -69.74725,0 -126.49052,-56.74325 -126.49052,-126.49052 0,-69.75276 56.74327,-126.49053 126.49052,-126.49053 4.80428,0 9.66357,0.29145 14.54491,0.875 29.1173,-31.20301 69.45008,-48.86271 112.57298,-48.86271 58.81796,0 111.95113,33.15665 137.96465,85.26623 36.08434,15.55749 59.68747,50.9374 59.68747,90.95652 0,54.65204 -44.46568,99.10671 -99.10672,99.10671 -1.02909,0 -2.06369,-0.022 -3.1093,-0.055 -27.13616,21.41835 -60.65601,33.1016 -95.4361,33.1016"
       id="path3757"
       style="fill:#ffffff;fill-opacity:1;fill-rule:nonzero;stroke:none" />
    <path
       d="m 250.05602,651.77933 c -4.55664,0 -8.25476,-3.69814 -8.25476,-8.25477 l 0,-38.52224 c 0,-4.55664 3.69812,-8.25478 8.25476,-8.25478 4.55663,0 8.25478,3.69814 8.25478,8.25478 l 0,38.52224 c 0,4.55663 -3.69815,8.25477 -8.25478,8.25477"
       id="path3761"
       style="fill:#ffffff;fill-opacity:1;fill-rule:nonzero;stroke:none" />
    <path
       d="m 227.06485,639.37569 c -2.50395,-3.80269 -1.44735,-8.92616 2.36087,-11.4301 l 32.19358,-21.15972 c 3.80819,-2.50393 8.92615,-1.44184 11.4246,2.36638 2.50944,3.80818 1.44732,8.92614 -2.36087,11.43009 l -32.18809,21.15972 c -3.80819,2.50394 -8.93164,1.43633 -11.43009,-2.36637"
       id="path3765"
       style="fill:#ffffff;fill-opacity:1;fill-rule:nonzero;stroke:none" />
    <path
       d="m 227.06485,609.14563 c -2.50395,3.80822 -1.44735,8.92616 2.36087,11.43012 l 32.19358,21.1652 c 3.80819,2.50396 8.92615,1.44184 11.4246,-2.36636 2.50944,-3.8137 1.44732,-8.93166 -2.36087,-11.43561 l -32.18809,-21.15422 c -3.80819,-2.50394 -8.93164,-1.44182 -11.43009,2.36087"
       id="path3769"
       style="fill:#ffffff;fill-opacity:1;fill-rule:nonzero;stroke:none" />
    <path
       d="m 444.61261,651.77933 c -4.55663,0 -8.25476,-3.69814 -8.25476,-8.25477 l 0,-38.52224 c 0,-4.55664 3.69813,-8.25478 8.25476,-8.25478 4.55664,0 8.25477,3.69814 8.25477,8.25478 l 0,38.52224 c 0,4.55663 -3.69813,8.25477 -8.25477,8.25477"
       id="path3773"
       style="fill:#ffffff;fill-opacity:1;fill-rule:nonzero;stroke:none" />
    <path
       d="m 421.62197,639.37569 c -2.50396,-3.80269 -1.44733,-8.92616 2.36086,-11.4301 l 32.19359,-21.15972 c 3.8082,-2.50393 8.92616,-1.44184 11.4246,2.36638 2.50945,3.80818 1.44734,8.92614 -2.36087,11.43009 l -32.18808,21.15972 c -3.8082,2.50394 -8.93165,1.43633 -11.4301,-2.36637"
       id="path3777"
       style="fill:#ffffff;fill-opacity:1;fill-rule:nonzero;stroke:none" />
    <path
       d="m 421.62197,609.14563 c -2.50396,3.80822 -1.44733,8.92616 2.36086,11.43012 l 32.19359,21.1652 c 3.8082,2.50396 8.92616,1.44184 11.4246,-2.36636 2.50945,-3.8137 1.44734,-8.93166 -2.36087,-11.43561 l -32.18808,-21.15422 c -3.8082,-2.50394 -8.93165,-1.44182 -11.4301,2.36087"
       id="path3781"
       style="fill:#ffffff;fill-opacity:1;fill-rule:nonzero;stroke:none" />
    <path
       d="m 345.55543,695.13278 c -4.55664,0 -8.25478,-3.69813 -8.25478,-8.25477 l 0,-38.52224 c 0,-4.55662 3.69814,-8.25475 8.25478,-8.25475 4.55662,0 8.25475,3.69813 8.25475,8.25475 l 0,38.52224 c 0,4.55664 -3.69813,8.25477 -8.25475,8.25477"
       id="path3785"
       style="fill:#ffffff;fill-opacity:1;fill-rule:nonzero;stroke:none" />
    <path
       d="m 322.56478,682.7292 c -2.50395,-3.80269 -1.44733,-8.92617 2.36086,-11.43011 l 32.19359,-21.15972 c 3.8082,-2.50396 8.92615,-1.44184 11.4246,2.36638 2.50945,3.80819 1.44733,8.92614 -2.36087,11.43009 l -32.18809,21.15972 c -3.80819,2.50394 -8.93164,1.43633 -11.43009,-2.36636"
       id="path3789"
       style="fill:#ffffff;fill-opacity:1;fill-rule:nonzero;stroke:none" />
    <path
       d="m 322.56478,652.4997 c -2.50395,3.8082 -1.44733,8.92618 2.36086,11.4301 l 32.19359,21.16524 c 3.8082,2.50394 8.92615,1.44182 11.4246,-2.36636 2.50945,-3.81372 1.44733,-8.93168 -2.36087,-11.43561 l -32.18809,-21.15422 c -3.80819,-2.50395 -8.93164,-1.44184 -11.43009,2.36085"
       id="path3793"
       style="fill:#ffffff;fill-opacity:1;fill-rule:nonzero;stroke:none" />
    <path
       d="m 250.05602,564.06696 c -4.55664,0 -8.25476,-3.69814 -8.25476,-8.25477 l 0,-38.52224 c 0,-4.55664 3.69812,-8.25477 8.25476,-8.25477 4.55663,0 8.25478,3.69813 8.25478,8.25477 l 0,38.52224 c 0,4.55663 -3.69815,8.25477 -8.25478,8.25477"
       id="path3797"
       style="fill:#ffffff;fill-opacity:1;fill-rule:nonzero;stroke:none" />
    <path
       d="m 227.06485,551.66333 c -2.50395,-3.8027 -1.44735,-8.92617 2.36087,-11.43012 l 32.19358,-21.15972 c 3.80819,-2.50393 8.92615,-1.44182 11.4246,2.36639 2.50944,3.8082 1.44732,8.92615 -2.36087,11.43009 l -32.18809,21.15972 c -3.80819,2.50395 -8.93164,1.43633 -11.43009,-2.36636"
       id="path3801"
       style="fill:#ffffff;fill-opacity:1;fill-rule:nonzero;stroke:none" />
    <path
       d="m 227.06485,521.43379 c -2.50395,3.80821 -1.44735,8.92616 2.36087,11.4301 l 32.19358,21.16522 c 3.80819,2.50395 8.92615,1.44184 11.4246,-2.36637 2.50944,-3.81369 1.44732,-8.93165 -2.36087,-11.43561 l -32.18809,-21.15419 c -3.80819,-2.50395 -8.93164,-1.44184 -11.43009,2.36085"
       id="path3805"
       style="fill:#ffffff;fill-opacity:1;fill-rule:nonzero;stroke:none" />
    <path
       d="m 444.61261,564.06696 c -4.55663,0 -8.25476,-3.69814 -8.25476,-8.25477 l 0,-38.52224 c 0,-4.55664 3.69813,-8.25477 8.25476,-8.25477 4.55664,0 8.25477,3.69813 8.25477,8.25477 l 0,38.52224 c 0,4.55663 -3.69813,8.25477 -8.25477,8.25477"
       id="path3809"
       style="fill:#ffffff;fill-opacity:1;fill-rule:nonzero;stroke:none" />
    <path
       d="m 421.62197,551.66333 c -2.50396,-3.8027 -1.44733,-8.92617 2.36086,-11.43012 l 32.19359,-21.15972 c 3.8082,-2.50393 8.92616,-1.44182 11.4246,2.36639 2.50945,3.8082 1.44734,8.92615 -2.36087,11.43009 l -32.18808,21.15972 c -3.8082,2.50395 -8.93165,1.43633 -11.4301,-2.36636"
       id="path3813"
       style="fill:#ffffff;fill-opacity:1;fill-rule:nonzero;stroke:none" />
    <path
       d="m 421.62197,521.43379 c -2.50396,3.80821 -1.44733,8.92616 2.36086,11.4301 l 32.19359,21.16522 c 3.8082,2.50395 8.92616,1.44184 11.4246,-2.36637 2.50945,-3.81369 1.44734,-8.93165 -2.36087,-11.43561 l -32.18808,-21.15419 c -3.8082,-2.50395 -8.93165,-1.44184 -11.4301,2.36085"
       id="path3817"
       style="fill:#ffffff;fill-opacity:1;fill-rule:nonzero;stroke:none" />
    <path
       d="m 345.55543,607.42094 c -4.55664,0 -8.25478,-3.69813 -8.25478,-8.25476 l 0,-38.52225 c 0,-4.55662 3.69814,-8.25475 8.25478,-8.25475 4.55662,0 8.25475,3.69813 8.25475,8.25475 l 0,38.52225 c 0,4.55663 -3.69813,8.25476 -8.25475,8.25476"
       id="path3821"
       style="fill:#ffffff;fill-opacity:1;fill-rule:nonzero;stroke:none" />
    <path
       d="m 322.56478,595.01678 c -2.50395,-3.80269 -1.44733,-8.92615 2.36086,-11.43009 l 32.19359,-21.15973 c 3.8082,-2.50393 8.92615,-1.44182 11.4246,2.36637 2.50945,3.8082 1.44733,8.92614 -2.36087,11.4301 l -32.18809,21.15971 c -3.80819,2.50394 -8.93164,1.43632 -11.43009,-2.36636"
       id="path3825"
       style="fill:#ffffff;fill-opacity:1;fill-rule:nonzero;stroke:none" />
    <path
       d="m 322.56478,564.78729 c -2.50395,3.80821 -1.44733,8.92617 2.36086,11.4301 l 32.19359,21.16523 c 3.8082,2.50394 8.92615,1.44183 11.4246,-2.36637 2.50945,-3.81371 1.44733,-8.93165 -2.36087,-11.43561 l -32.18809,-21.1542 c -3.80819,-2.50394 -8.93164,-1.44184 -11.43009,2.36085"
       id="path3829"
       style="fill:#ffffff;fill-opacity:1;fill-rule:nonzero;stroke:none" />
  </g>
</svg>
