<?xml version="1.0" encoding="UTF-8" standalone="no"?>
<!-- Created with Inkscape (http://www.inkscape.org/) -->

<svg
   xmlns:dc="http://purl.org/dc/elements/1.1/"
   xmlns:cc="http://creativecommons.org/ns#"
   xmlns:rdf="http://www.w3.org/1999/02/22-rdf-syntax-ns#"
   xmlns:svg="http://www.w3.org/2000/svg"
   xmlns="http://www.w3.org/2000/svg"
   version="1.1"
   width="47.736839"
   height="100"
   id="svg9696">
  <defs
     id="defs9698" />
  <metadata
     id="metadata9701">
    <rdf:RDF>
      <cc:Work
         rdf:about="">
        <dc:format>image/svg+xml</dc:format>
        <dc:type
           rdf:resource="http://purl.org/dc/dcmitype/StillImage" />
        <dc:title></dc:title>
      </cc:Work>
    </rdf:RDF>
  </metadata>
  <g
     transform="translate(-20.67858,-765.16593)"
     id="layer1">
    <path
       d="m 44.54699,852.1468 c -5.87814,0 -10.65399,-4.70859 -10.81673,-10.54768 -0.003,-0.1019 -0.0325,-0.19963 -0.0325,-0.30161 0,-3.628 1.80533,-6.82637 4.55019,-8.79877 -0.12585,-0.49906 -0.21047,-1.01332 -0.21047,-1.55361 l 0,-12.59602 0,-37.99419 c 0,-3.58894 2.92062,-6.50956 6.50957,-6.50956 3.58894,0 6.50957,2.92062 6.50957,6.50956 l 0,37.99419 0,12.59602 c 0,0.54029 -0.0847,1.05455 -0.21048,1.55361 2.74487,1.9724 4.55019,5.17077 4.55019,8.79877 0,0.10189 -0.0283,0.19963 -0.0326,0.30161 -0.16265,5.83909 -4.93859,10.54768 -10.81673,10.54768 m 15.18899,-29.26269 0,-42.52919 c 0,-8.38649 -6.80032,-15.18899 -15.18899,-15.18899 -8.38866,0 -15.18899,6.8025 -15.18899,15.18899 l 0,42.52919 c -5.29879,4.37659 -8.67943,11.00117 -8.67943,18.4134 0,13.17971 10.68654,23.86842 23.86842,23.86842 13.18187,0 23.86842,-10.68871 23.86842,-23.86842 0,-7.41223 -3.38063,-14.03681 -8.67943,-18.4134"
       id="path3141"
       style="fill:#ffffff;fill-opacity:1;fill-rule:nonzero;stroke:none" />
  </g>
</svg>
