<?xml version="1.0" encoding="UTF-8" standalone="no"?>
<!-- Created with Inkscape (http://www.inkscape.org/) -->

<svg
   xmlns:dc="http://purl.org/dc/elements/1.1/"
   xmlns:cc="http://creativecommons.org/ns#"
   xmlns:rdf="http://www.w3.org/1999/02/22-rdf-syntax-ns#"
   xmlns:svg="http://www.w3.org/2000/svg"
   xmlns="http://www.w3.org/2000/svg"
   version="1.1"
   width="500"
   height="500"
   id="svg9658">
  <defs
     id="defs9660" />
  <metadata
     id="metadata9663">
    <rdf:RDF>
      <cc:Work
         rdf:about="">
        <dc:format>image/svg+xml</dc:format>
        <dc:type
           rdf:resource="http://purl.org/dc/dcmitype/StillImage" />
        <dc:title></dc:title>
      </cc:Work>
    </rdf:RDF>
  </metadata>
  <g
     transform="translate(0,-552.36218)"
     id="layer1">
    <path
       d="m 202.01479,809.1949 12.39203,8.22634 c 19.40591,12.8755 42.05398,19.68611 65.50232,19.68611 29.09121,0 57.02913,-10.59169 78.66514,-29.83503 l 8.07892,-7.17766 10.76213,1.42737 c 3.09504,0.40783 5.59581,0.60009 7.86121,0.60009 32.49813,0 58.92973,-26.1763 58.92973,-58.34757 0,-25.58787 -16.54035,-47.9423 -41.16551,-55.63847 l -10.34431,-3.23927 -4.23071,-9.89259 c -18.49975,-43.25818 -61.10686,-71.2056 -108.5566,-71.2056 -36.36992,0 -70.16257,16.29538 -92.69296,44.69722 l -9.18516,11.58214 -14.50442,-3.25092 c -6.6079,-1.47982 -13.18049,-2.23139 -19.5295,-2.23139 -48.638337,0 -88.203344,39.16834 -88.203344,87.33204 0,48.15785 39.565007,87.33783 88.203344,87.33783 15.82839,0 31.46845,-4.31708 45.21969,-12.4735 l 12.798,-7.59714 z m 77.89435,74.48565 c -27.98502,0 -55.17565,-6.93296 -79.436,-20.17549 -17.70538,8.10398 -36.98184,12.33367 -56.47604,12.33367 -74.575656,0 -135.2470936,-60.07207 -135.2470936,-133.91102 0,-73.8448 60.6714376,-133.91104 135.2470936,-133.91104 5.13688,0 10.33257,0.309 15.55182,0.92634 31.133,-33.03352 74.25793,-51.72922 120.36022,-51.72922 62.88974,0 119.70706,35.10175 147.52143,90.26832 38.57645,16.47016 63.81944,53.92563 63.81944,96.29244 0,57.85819 -47.53802,104.92077 -105.97347,104.92077 -1.09446,0 -2.20067,-0.0233 -3.31278,-0.0583 -29.02062,22.67488 -64.86095,35.0435 -102.05462,35.0435"
       id="path3661"
       style="fill:#ffffff;fill-opacity:1;fill-rule:nonzero;stroke:none" />
    <path
       d="m 279.09476,928.8444 c 0,12.8755 -10.5385,23.30407 -23.53659,23.30407 -12.99807,0 -23.53657,-10.42857 -23.53657,-23.30407 0,-12.86967 10.5385,-23.30408 23.53657,-23.30408 12.99809,0 23.53659,10.43441 23.53659,23.30408"
       id="path3665"
       style="fill:#ffffff;fill-opacity:1;fill-rule:nonzero;stroke:none" />
    <path
       d="m 176.98421,882.23625 c 0,12.87551 -10.53849,23.30407 -23.53658,23.30407 -12.99808,0 -23.5366,-10.42856 -23.5366,-23.30407 0,-12.86967 10.53852,-23.30406 23.5366,-23.30406 12.99809,0 23.53658,10.43439 23.53658,23.30406"
       id="path3669"
       style="fill:#ffffff;fill-opacity:1;fill-rule:nonzero;stroke:none" />
    <path
       d="m 385.0094,882.23625 c 0,12.87551 -10.53852,23.30407 -23.53658,23.30407 -12.99809,0 -23.53659,-10.42856 -23.53659,-23.30407 0,-12.86967 10.5385,-23.30406 23.53659,-23.30406 12.99806,0 23.53658,10.43439 23.53658,23.30406"
       id="path3673"
       style="fill:#ffffff;fill-opacity:1;fill-rule:nonzero;stroke:none" />
    <path
       d="m 279.09476,1021.3494 c 0,12.8755 -10.5385,23.3041 -23.53659,23.3041 -12.99807,0 -23.53657,-10.4286 -23.53657,-23.3041 0,-12.8697 10.5385,-23.30413 23.53657,-23.30413 12.99809,0 23.53659,10.43443 23.53659,23.30413"
       id="path3677"
       style="fill:#ffffff;fill-opacity:1;fill-rule:nonzero;stroke:none" />
    <path
       d="m 176.98421,975.45254 c 0,12.8755 -10.53849,23.30407 -23.53658,23.30407 -12.99808,0 -23.5366,-10.42857 -23.5366,-23.30407 0,-12.86967 10.53852,-23.30407 23.5366,-23.30407 12.99809,0 23.53658,10.4344 23.53658,23.30407"
       id="path3681"
       style="fill:#ffffff;fill-opacity:1;fill-rule:nonzero;stroke:none" />
    <path
       d="m 385.0094,975.45254 c 0,12.8755 -10.53852,23.30407 -23.53658,23.30407 -12.99809,0 -23.53659,-10.42857 -23.53659,-23.30407 0,-12.86967 10.5385,-23.30407 23.53659,-23.30407 12.99806,0 23.53658,10.4344 23.53658,23.30407"
       id="path3685"
       style="fill:#ffffff;fill-opacity:1;fill-rule:nonzero;stroke:none" />
  </g>
</svg>
